<?xml version="1.0" encoding="UTF-8" standalone="no"?>
<!DOCTYPE svg PUBLIC "-//W3C//DTD SVG 1.1//EN"
 "http://www.w3.org/Graphics/SVG/1.1/DTD/svg11.dtd">
<!-- Generated by graphviz version 2.40.1 (20161225.0304)
 -->
<!-- Title: G Pages: 1 -->
<svg width="290pt" height="338pt"
 viewBox="0.00 0.00 290.00 338.00" xmlns="http://www.w3.org/2000/svg" xmlns:xlink="http://www.w3.org/1999/xlink">
<g id="graph0" class="graph" transform="scale(1 1) rotate(0) translate(4 334)">
<title>G</title>
<polygon fill="#ffffff" stroke="transparent" points="-4,4 -4,-334 286,-334 286,4 -4,4"/>
<!-- A0 -->
<g id="node1" class="node">
<title>A0</title>
<polygon fill="none" stroke="#000000" points="0,-298 0,-330 118,-330 118,-298 0,-298"/>
<text text-anchor="start" x="31.9095" y="-311" font-family="Helvetica,sans-Serif" font-size="10.00" fill="#000000">+A:TvGenre</text>
<polygon fill="none" stroke="#000000" points="0,-266 0,-298 118,-298 118,-266 0,-266"/>
<text text-anchor="start" x="26.076" y="-279" font-family="Helvetica,sans-Serif" font-size="10.00" fill="#000000">+tvShow:string</text>
<polygon fill="none" stroke="#000000" points="0,-210 0,-266 118,-266 118,-210 0,-210"/>
<text text-anchor="start" x="21.907" y="-247" font-family="Helvetica,sans-Serif" font-size="10.00" fill="#000000">+GetShow:string</text>
<text text-anchor="start" x="24.1305" y="-235" font-family="Helvetica,sans-Serif" font-size="10.00" fill="#000000">+GetSnacks():a</text>
<text text-anchor="start" x="9.9635" y="-223" font-family="Helvetica,sans-Serif" font-size="10.00" fill="#000000">+LocationToWatch():v</text>
<polygon fill="none" stroke="#000000" points="0,-190 0,-210 118,-210 118,-190 0,-190"/>
</g>
<!-- A3 -->
<g id="node4" class="node">
<title>A3</title>
<polygon fill="none" stroke="#000000" points="28,-108 28,-140 146,-140 146,-108 28,-108"/>
<text text-anchor="start" x="65.468" y="-121" font-family="Helvetica,sans-Serif" font-size="10.00" fill="#000000">+Comedy</text>
<polygon fill="none" stroke="#000000" points="28,-88 28,-108 146,-108 146,-88 28,-88"/>
<polygon fill="none" stroke="#000000" points="28,-20 28,-88 146,-88 146,-20 28,-20"/>
<text text-anchor="start" x="52.1305" y="-69" font-family="Helvetica,sans-Serif" font-size="10.00" fill="#000000">+GetSnacks():o</text>
<text text-anchor="start" x="37.684" y="-57" font-family="Helvetica,sans-Serif" font-size="10.00" fill="#000000">+LocationToWatch():o</text>
<text text-anchor="start" x="61.025" y="-45" font-family="Helvetica,sans-Serif" font-size="10.00" fill="#000000">+Reaction()</text>
<text text-anchor="start" x="66.3045" y="-33" font-family="Helvetica,sans-Serif" font-size="10.00" fill="#000000">+Rating()</text>
<polygon fill="none" stroke="#000000" points="28,0 28,-20 146,-20 146,0 28,0"/>
</g>
<!-- A0&#45;&gt;A3 -->
<g id="edge1" class="edge">
<title>A0&#45;&gt;A3</title>
<path fill="none" stroke="#000000" stroke-dasharray="5,2" d="M70.8153,-179.8246C72.7539,-166.6702 74.7497,-153.127 76.6492,-140.2376"/>
<polygon fill="#000000" stroke="#000000" points="69.3466,-189.7908 66.3527,-179.2416 70.0756,-184.8443 70.8046,-179.8977 70.8046,-179.8977 70.8046,-179.8977 70.0756,-184.8443 75.2566,-180.5538 69.3466,-189.7908 69.3466,-189.7908"/>
</g>
<!-- A4 -->
<g id="node5" class="node">
<title>A4</title>
<polygon fill="none" stroke="#000000" points="164,-108 164,-140 282,-140 282,-108 164,-108"/>
<text text-anchor="start" x="206.188" y="-121" font-family="Helvetica,sans-Serif" font-size="10.00" fill="#000000">+Action</text>
<polygon fill="none" stroke="#000000" points="164,-88 164,-108 282,-108 282,-88 164,-88"/>
<polygon fill="none" stroke="#000000" points="164,-20 164,-88 282,-88 282,-20 164,-20"/>
<text text-anchor="start" x="188.1305" y="-69" font-family="Helvetica,sans-Serif" font-size="10.00" fill="#000000">+GetSnacks():o</text>
<text text-anchor="start" x="173.684" y="-57" font-family="Helvetica,sans-Serif" font-size="10.00" fill="#000000">+LocationToWatch():o</text>
<text text-anchor="start" x="197.025" y="-45" font-family="Helvetica,sans-Serif" font-size="10.00" fill="#000000">+Reaction()</text>
<text text-anchor="start" x="202.3045" y="-33" font-family="Helvetica,sans-Serif" font-size="10.00" fill="#000000">+Rating()</text>
<polygon fill="none" stroke="#000000" points="164,0 164,-20 282,-20 282,0 164,0"/>
</g>
<!-- A0&#45;&gt;A4 -->
<g id="edge2" class="edge">
<title>A0&#45;&gt;A4</title>
<path fill="none" stroke="#000000" stroke-dasharray="5,2" d="M124.8913,-183.6626C137.782,-168.7282 151.2256,-153.1533 163.8791,-138.4937"/>
<polygon fill="#000000" stroke="#000000" points="118.2078,-191.4056 121.3354,-180.8952 121.4748,-187.6206 124.7419,-183.8356 124.7419,-183.8356 124.7419,-183.8356 121.4748,-187.6206 128.1484,-186.776 118.2078,-191.4056 118.2078,-191.4056"/>
</g>
<!-- A1 -->
<g id="node2" class="node">
<title>A1</title>
<polygon fill="none" stroke="#000000" points="136,-260 136,-292 204,-292 204,-260 136,-260"/>
<text text-anchor="start" x="145.9645" y="-273" font-family="Helvetica,sans-Serif" font-size="10.00" fill="#000000">+IReaction</text>
<polygon fill="none" stroke="#000000" points="136,-228 136,-260 204,-260 204,-228 136,-228"/>
<text text-anchor="start" x="146.9445" y="-241" font-family="Helvetica,sans-Serif" font-size="10.00" fill="#000000">Reaction()</text>
</g>
<!-- A1&#45;&gt;A3 -->
<g id="edge3" class="edge">
<title>A1&#45;&gt;A3</title>
<path fill="none" stroke="#000000" d="M151.8148,-218.3711C141.8284,-195.5107 129.1757,-166.5467 117.7053,-140.2892"/>
<polygon fill="none" stroke="#000000" points="148.7097,-220.0064 155.9202,-227.7691 155.1243,-217.2042 148.7097,-220.0064"/>
</g>
<!-- A1&#45;&gt;A4 -->
<g id="edge5" class="edge">
<title>A1&#45;&gt;A4</title>
<path fill="none" stroke="#000000" d="M181.6978,-218.0646C188.0612,-195.2522 196.1013,-166.4295 203.393,-140.2892"/>
<polygon fill="none" stroke="#000000" points="178.3064,-217.1964 178.9907,-227.7691 185.049,-219.0773 178.3064,-217.1964"/>
</g>
<!-- A2 -->
<g id="node3" class="node">
<title>A2</title>
<polygon fill="none" stroke="#000000" points="223,-260 223,-292 280,-292 280,-260 223,-260"/>
<text text-anchor="start" x="232.744" y="-273" font-family="Helvetica,sans-Serif" font-size="10.00" fill="#000000">+IRating</text>
<polygon fill="none" stroke="#000000" points="223,-228 223,-260 280,-260 280,-228 223,-228"/>
<text text-anchor="start" x="233.724" y="-241" font-family="Helvetica,sans-Serif" font-size="10.00" fill="#000000">Rating()</text>
</g>
<!-- A2&#45;&gt;A3 -->
<g id="edge4" class="edge">
<title>A2&#45;&gt;A3</title>
<path fill="none" stroke="#000000" d="M231.8901,-218.8722C226.4381,-208.9706 220.042,-198.7378 213,-190 191.6435,-163.5005 179.7703,-163.3399 155,-140 152.0405,-137.2114 149.0383,-134.3305 146.0273,-131.399"/>
<polygon fill="none" stroke="#000000" points="228.8535,-220.6171 236.6231,-227.8201 235.0412,-217.344 228.8535,-220.6171"/>
</g>
<!-- A2&#45;&gt;A4 -->
<g id="edge6" class="edge">
<title>A2&#45;&gt;A4</title>
<path fill="none" stroke="#000000" d="M244.7748,-217.7574C241.4201,-194.9937 237.1934,-166.3122 233.3584,-140.2892"/>
<polygon fill="none" stroke="#000000" points="241.3296,-218.3862 246.2502,-227.7691 248.2548,-217.3656 241.3296,-218.3862"/>
</g>
</g>
</svg>
