<?xml version="1.0" encoding="UTF-8" standalone="no"?>
<!DOCTYPE svg PUBLIC "-//W3C//DTD SVG 1.1//EN"
 "http://www.w3.org/Graphics/SVG/1.1/DTD/svg11.dtd">
<!-- Generated by graphviz version 2.40.1 (20161225.0304)
 -->
<!-- Title: G Pages: 1 -->
<svg width="118pt" height="270pt"
 viewBox="0.00 0.00 118.00 270.00" xmlns="http://www.w3.org/2000/svg" xmlns:xlink="http://www.w3.org/1999/xlink">
<g id="graph0" class="graph" transform="scale(1 1) rotate(0) translate(4 266)">
<title>G</title>
<polygon fill="#ffffff" stroke="transparent" points="-4,4 -4,-266 114,-266 114,4 -4,4"/>
<!-- A0 -->
<g id="node1" class="node">
<title>A0</title>
<polygon fill="none" stroke="#000000" points="1,-230 1,-262 110,-262 110,-230 1,-230"/>
<text text-anchor="start" x="33.4175" y="-243" font-family="Helvetica,sans-Serif" font-size="10.00" fill="#000000">+MyClass</text>
<polygon fill="none" stroke="#000000" points="1,-198 1,-230 110,-230 110,-198 1,-198"/>
<text text-anchor="start" x="19.1125" y="-211" font-family="Helvetica,sans-Serif" font-size="10.00" fill="#000000"> &#45;myString:string</text>
<polygon fill="none" stroke="#000000" points="1,-154 1,-198 110,-198 110,-154 1,-154"/>
<text text-anchor="start" x="10.6345" y="-179" font-family="Helvetica,sans-Serif" font-size="10.00" fill="#000000">+GetString():string:v</text>
<text text-anchor="start" x="12.8585" y="-167" font-family="Helvetica,sans-Serif" font-size="10.00" fill="#000000"> +MyString:string:w</text>
<polygon fill="none" stroke="#000000" points="1,-134 1,-154 110,-154 110,-134 1,-134"/>
</g>
<!-- A1 -->
<g id="node2" class="node">
<title>A1</title>
<polygon fill="none" stroke="#000000" points="0,-52 0,-84 110,-84 110,-52 0,-52"/>
<text text-anchor="start" x="15.6955" y="-65" font-family="Helvetica,sans-Serif" font-size="10.00" fill="#000000">+MyDerivedClass</text>
<polygon fill="none" stroke="#000000" points="0,-32 0,-52 110,-52 110,-32 0,-32"/>
<polygon fill="none" stroke="#000000" points="0,0 0,-32 110,-32 110,0 0,0"/>
<text text-anchor="start" x="9.855" y="-13" font-family="Helvetica,sans-Serif" font-size="10.00" fill="#000000">+GetString():string:o</text>
</g>
<!-- A0&#45;&gt;A1 -->
<g id="edge1" class="edge">
<title>A0&#45;&gt;A1</title>
<path fill="none" stroke="#000000" d="M55,-123.4423C55,-110.027 55,-96.4757 55,-84.3798"/>
<polygon fill="#000000" stroke="#000000" points="55,-133.6482 50.5001,-123.6481 55,-128.6482 55.0001,-123.6482 55.0001,-123.6482 55.0001,-123.6482 55,-128.6482 59.5001,-123.6482 55,-133.6482 55,-133.6482"/>
</g>
</g>
</svg>
