<?xml version="1.0" encoding="UTF-8" standalone="no"?>
<!DOCTYPE svg PUBLIC "-//W3C//DTD SVG 1.1//EN"
 "http://www.w3.org/Graphics/SVG/1.1/DTD/svg11.dtd">
<!-- Generated by graphviz version 2.40.1 (20161225.0304)
 -->
<!-- Title: G Pages: 1 -->
<svg width="249pt" height="512pt"
 viewBox="0.00 0.00 249.00 512.00" xmlns="http://www.w3.org/2000/svg" xmlns:xlink="http://www.w3.org/1999/xlink">
<g id="graph0" class="graph" transform="scale(1 1) rotate(0) translate(4 508)">
<title>G</title>
<polygon fill="#ffffff" stroke="transparent" points="-4,4 -4,-508 245,-508 245,4 -4,4"/>
<!-- A0 -->
<g id="node1" class="node">
<title>A0</title>
<polygon fill="none" stroke="#000000" points="101.5,-472 101.5,-504 187.5,-504 187.5,-472 101.5,-472"/>
<text text-anchor="start" x="111.3015" y="-485" font-family="Helvetica,sans-Serif" font-size="10.00" fill="#000000">+I:IDrawObject</text>
<polygon fill="none" stroke="#000000" points="101.5,-440 101.5,-472 187.5,-472 187.5,-440 101.5,-440"/>
<text text-anchor="start" x="122.564" y="-453" font-family="Helvetica,sans-Serif" font-size="10.00" fill="#000000">DrawMe()</text>
</g>
<!-- A1 -->
<g id="node2" class="node">
<title>A1</title>
<polygon fill="none" stroke="#000000" points=".5,-310 .5,-342 71.5,-342 71.5,-310 .5,-310"/>
<text text-anchor="start" x="20.298" y="-323" font-family="Helvetica,sans-Serif" font-size="10.00" fill="#000000">+Blood</text>
<polygon fill="none" stroke="#000000" points=".5,-290 .5,-310 71.5,-310 71.5,-290 .5,-290"/>
<polygon fill="none" stroke="#000000" points=".5,-258 .5,-290 71.5,-290 71.5,-258 .5,-258"/>
<text text-anchor="start" x="10.1745" y="-271" font-family="Helvetica,sans-Serif" font-size="10.00" fill="#000000">DrawMe():v</text>
<polygon fill="none" stroke="#000000" points=".5,-238 .5,-258 71.5,-258 71.5,-238 .5,-238"/>
</g>
<!-- A0&#45;&gt;A1 -->
<g id="edge1" class="edge">
<title>A0&#45;&gt;A1</title>
<path fill="none" stroke="#000000" d="M110.1701,-431.9886C99.9352,-419.0556 89.1517,-404.3422 80.5,-390 71.4531,-375.0025 63.0968,-357.8694 56.1033,-342.0726"/>
<polygon fill="none" stroke="#000000" points="107.4526,-434.1944 116.448,-439.7919 112.9066,-429.8065 107.4526,-434.1944"/>
</g>
<!-- A2 -->
<g id="node3" class="node">
<title>A2</title>
<polygon fill="none" stroke="#000000" points="89.5,-358 89.5,-390 199.5,-390 199.5,-358 89.5,-358"/>
<text text-anchor="start" x="122.404" y="-371" font-family="Helvetica,sans-Serif" font-size="10.00" fill="#000000">+A:Shape</text>
<polygon fill="none" stroke="#000000" points="89.5,-290 89.5,-358 199.5,-358 199.5,-290 89.5,-290"/>
<text text-anchor="start" x="120.46" y="-339" font-family="Helvetica,sans-Serif" font-size="10.00" fill="#000000">+PI:double</text>
<text text-anchor="start" x="122.684" y="-327" font-family="Helvetica,sans-Serif" font-size="10.00" fill="#000000">=x:double</text>
<text text-anchor="start" x="122.684" y="-315" font-family="Helvetica,sans-Serif" font-size="10.00" fill="#000000">=y:double</text>
<text text-anchor="start" x="123.9445" y="-303" font-family="Helvetica,sans-Serif" font-size="10.00" fill="#000000">&#45;myInt:int</text>
<polygon fill="none" stroke="#000000" points="89.5,-246 89.5,-290 199.5,-290 199.5,-246 89.5,-246"/>
<text text-anchor="start" x="107.4075" y="-271" font-family="Helvetica,sans-Serif" font-size="10.00" fill="#000000">+Area():double:v</text>
<text text-anchor="start" x="115.4755" y="-259" font-family="Helvetica,sans-Serif" font-size="10.00" fill="#000000">+DrawMe():a</text>
<polygon fill="none" stroke="#000000" points="89.5,-190 89.5,-246 199.5,-246 199.5,-190 89.5,-190"/>
<text text-anchor="start" x="138.2515" y="-227" font-family="Helvetica,sans-Serif" font-size="10.00" fill="#000000">+()</text>
<text text-anchor="start" x="99.069" y="-203" font-family="Helvetica,sans-Serif" font-size="10.00" fill="#000000">+(x:double,y:double)</text>
</g>
<!-- A0&#45;&gt;A2 -->
<g id="edge2" class="edge">
<title>A0&#45;&gt;A2</title>
<path fill="none" stroke="#000000" d="M144.5,-429.758C144.5,-417.7284 144.5,-404.0856 144.5,-390.1538"/>
<polygon fill="none" stroke="#000000" points="141.0001,-429.881 144.5,-439.881 148.0001,-429.881 141.0001,-429.881"/>
</g>
<!-- A3 -->
<g id="node4" class="node">
<title>A3</title>
<polygon fill="none" stroke="#000000" points="130.5,-108 130.5,-140 241.5,-140 241.5,-108 130.5,-108"/>
<text text-anchor="start" x="170.308" y="-121" font-family="Helvetica,sans-Serif" font-size="10.00" fill="#000000">+Circle</text>
<polygon fill="none" stroke="#000000" points="130.5,-88 130.5,-108 241.5,-108 241.5,-88 130.5,-88"/>
<polygon fill="none" stroke="#000000" points="130.5,-32 130.5,-88 241.5,-88 241.5,-32 130.5,-32"/>
<text text-anchor="start" x="148.628" y="-69" font-family="Helvetica,sans-Serif" font-size="10.00" fill="#000000">+Area():double:o</text>
<text text-anchor="start" x="156.9755" y="-45" font-family="Helvetica,sans-Serif" font-size="10.00" fill="#000000">+DrawMe():o</text>
<polygon fill="none" stroke="#000000" points="130.5,0 130.5,-32 241.5,-32 241.5,0 130.5,0"/>
<text text-anchor="start" x="140.3" y="-13" font-family="Helvetica,sans-Serif" font-size="10.00" fill="#000000">+(r:double):base(r,0)</text>
</g>
<!-- A0&#45;&gt;A3 -->
<g id="edge4" class="edge">
<title>A0&#45;&gt;A3</title>
<path fill="none" stroke="#000000" d="M184.1331,-432.0729C194.0276,-419.6069 203.295,-405.1287 208.5,-390 236.8589,-307.5733 221.949,-206.3351 206.0748,-140.09"/>
<polygon fill="none" stroke="#000000" points="181.2772,-430.0333 177.5767,-439.9609 186.6605,-434.5078 181.2772,-430.0333"/>
</g>
<!-- A2&#45;&gt;A3 -->
<g id="edge3" class="edge">
<title>A2&#45;&gt;A3</title>
<path fill="none" stroke="#000000" stroke-dasharray="5,2" d="M164.9794,-180.1107C167.5079,-166.5429 170.0369,-152.9728 172.4124,-140.2261"/>
<polygon fill="#000000" stroke="#000000" points="163.1405,-189.978 160.5488,-179.3228 164.0565,-185.0627 164.9726,-180.1473 164.9726,-180.1473 164.9726,-180.1473 164.0565,-185.0627 169.3965,-180.9718 163.1405,-189.978 163.1405,-189.978"/>
</g>
</g>
</svg>
