<?xml version="1.0" encoding="UTF-8" standalone="no"?>
<!DOCTYPE svg PUBLIC "-//W3C//DTD SVG 1.1//EN"
 "http://www.w3.org/Graphics/SVG/1.1/DTD/svg11.dtd">
<!-- Generated by graphviz version 2.40.1 (20161225.0304)
 -->
<!-- Title: G Pages: 1 -->
<svg width="314pt" height="398pt"
 viewBox="0.00 0.00 313.50 398.00" xmlns="http://www.w3.org/2000/svg" xmlns:xlink="http://www.w3.org/1999/xlink">
<g id="graph0" class="graph" transform="scale(1 1) rotate(0) translate(4 394)">
<title>G</title>
<polygon fill="#ffffff" stroke="transparent" points="-4,4 -4,-394 309.5,-394 309.5,4 -4,4"/>
<!-- A0 -->
<g id="node1" class="node">
<title>A0</title>
<polygon fill="none" stroke="#000000" points="38,-290 38,-322 109,-322 109,-290 38,-290"/>
<text text-anchor="start" x="47.5245" y="-303" font-family="Helvetica,sans-Serif" font-size="10.00" fill="#000000">+ICustomer</text>
<polygon fill="none" stroke="#000000" points="38,-258 38,-290 109,-290 109,-258 38,-258"/>
<text text-anchor="start" x="57.6685" y="-271" font-family="Helvetica,sans-Serif" font-size="10.00" fill="#000000">Greet()</text>
</g>
<!-- A1 -->
<g id="node2" class="node">
<title>A1</title>
<polygon fill="none" stroke="#000000" points="0,-108 0,-140 146,-140 146,-108 0,-108"/>
<text text-anchor="start" x="48.414" y="-121" font-family="Helvetica,sans-Serif" font-size="10.00" fill="#000000">+Customer</text>
<polygon fill="none" stroke="#000000" points="0,-64 0,-108 146,-108 146,-64 0,-64"/>
<text text-anchor="start" x="43.9655" y="-89" font-family="Helvetica,sans-Serif" font-size="10.00" fill="#000000">+name:string</text>
<text text-anchor="start" x="16.891" y="-77" font-family="Helvetica,sans-Serif" font-size="10.00" fill="#000000">&#45;creditCardNumber:string</text>
<polygon fill="none" stroke="#000000" points="0,-20 0,-64 146,-64 146,-20 0,-20"/>
<text text-anchor="start" x="9.5275" y="-45" font-family="Helvetica,sans-Serif" font-size="10.00" fill="#000000">+CreditCardNumber:string:w</text>
<text text-anchor="start" x="54.249" y="-33" font-family="Helvetica,sans-Serif" font-size="10.00" fill="#000000">+Greet()</text>
<polygon fill="none" stroke="#000000" points="0,0 0,-20 146,-20 146,0 0,0"/>
</g>
<!-- A0&#45;&gt;A1 -->
<g id="edge1" class="edge">
<title>A0&#45;&gt;A1</title>
<path fill="none" stroke="#000000" d="M73,-247.2996C73,-216.9654 73,-175.5409 73,-140.3609"/>
<polygon fill="none" stroke="#000000" points="69.5001,-247.5382 73,-257.5382 76.5001,-247.5383 69.5001,-247.5382"/>
</g>
<!-- A2 -->
<g id="node3" class="node">
<title>A2</title>
<polygon fill="none" stroke="#000000" points="189,-358 189,-390 281,-390 281,-358 189,-358"/>
<text text-anchor="start" x="207.915" y="-371" font-family="Helvetica,sans-Serif" font-size="10.00" fill="#000000">+A:HotDrink</text>
<polygon fill="none" stroke="#000000" points="189,-278 189,-358 281,-358 281,-278 189,-278"/>
<text text-anchor="start" x="206.516" y="-339" font-family="Helvetica,sans-Serif" font-size="10.00" fill="#000000">+instant:bool</text>
<text text-anchor="start" x="212.3595" y="-327" font-family="Helvetica,sans-Serif" font-size="10.00" fill="#000000">+milk:bool</text>
<text text-anchor="start" x="209.9945" y="-315" font-family="Helvetica,sans-Serif" font-size="10.00" fill="#000000">&#45;sugar:byte</text>
<text text-anchor="start" x="205.686" y="-303" font-family="Helvetica,sans-Serif" font-size="10.00" fill="#000000">+brand:string</text>
<text text-anchor="start" x="209.5795" y="-291" font-family="Helvetica,sans-Serif" font-size="10.00" fill="#000000">+size:string</text>
<polygon fill="none" stroke="#000000" points="189,-222 189,-278 281,-278 281,-222 189,-222"/>
<text text-anchor="start" x="198.7365" y="-259" font-family="Helvetica,sans-Serif" font-size="10.00" fill="#000000">+AddSugar(byte</text>
<text text-anchor="start" x="212.774" y="-247" font-family="Helvetica,sans-Serif" font-size="10.00" fill="#000000">amount):v</text>
<text text-anchor="start" x="210.135" y="-235" font-family="Helvetica,sans-Serif" font-size="10.00" fill="#000000">+Steam():a</text>
<polygon fill="none" stroke="#000000" points="189,-190 189,-222 281,-222 281,-190 189,-190"/>
<text text-anchor="start" x="202.357" y="-203" font-family="Helvetica,sans-Serif" font-size="10.00" fill="#000000">+(brand:string)</text>
</g>
<!-- A3 -->
<g id="node4" class="node">
<title>A3</title>
<polygon fill="none" stroke="#000000" points="165,-108 165,-140 306,-140 306,-108 165,-108"/>
<text text-anchor="start" x="203.406" y="-121" font-family="Helvetica,sans-Serif" font-size="10.00" fill="#000000">+CupOfCoffee</text>
<polygon fill="none" stroke="#000000" points="165,-76 165,-108 306,-108 306,-76 165,-76"/>
<text text-anchor="start" x="196.737" y="-89" font-family="Helvetica,sans-Serif" font-size="10.00" fill="#000000">+beanType:string</text>
<polygon fill="none" stroke="#000000" points="165,-44 165,-76 306,-76 306,-44 165,-44"/>
<text text-anchor="start" x="210.635" y="-57" font-family="Helvetica,sans-Serif" font-size="10.00" fill="#000000">+Steam():o</text>
<polygon fill="none" stroke="#000000" points="165,0 165,-44 306,-44 306,0 165,0"/>
<text text-anchor="start" x="229.2515" y="-25" font-family="Helvetica,sans-Serif" font-size="10.00" fill="#000000">+()</text>
<text text-anchor="start" x="174.5175" y="-13" font-family="Helvetica,sans-Serif" font-size="10.00" fill="#000000">+(brand:string):base(brand)</text>
</g>
<!-- A2&#45;&gt;A3 -->
<g id="edge2" class="edge">
<title>A2&#45;&gt;A3</title>
<path fill="none" stroke="#000000" stroke-dasharray="5,2" d="M235,-179.7155C235,-166.2794 235,-152.849 235,-140.2261"/>
<polygon fill="#000000" stroke="#000000" points="235,-189.978 230.5001,-179.978 235,-184.978 235.0001,-179.978 235.0001,-179.978 235.0001,-179.978 235,-184.978 239.5001,-179.9781 235,-189.978 235,-189.978"/>
</g>
</g>
</svg>
