<?xml version="1.0" encoding="UTF-8" standalone="no"?>
<!DOCTYPE svg PUBLIC "-//W3C//DTD SVG 1.1//EN"
 "http://www.w3.org/Graphics/SVG/1.1/DTD/svg11.dtd">
<!-- Generated by graphviz version 2.40.1 (20161225.0304)
 -->
<!-- Title: G Pages: 1 -->
<svg width="314pt" height="410pt"
 viewBox="0.00 0.00 313.50 410.00" xmlns="http://www.w3.org/2000/svg" xmlns:xlink="http://www.w3.org/1999/xlink">
<g id="graph0" class="graph" transform="scale(1 1) rotate(0) translate(4 406)">
<title>G</title>
<polygon fill="#ffffff" stroke="transparent" points="-4,4 -4,-406 309.5,-406 309.5,4 -4,4"/>
<!-- A0 -->
<g id="node1" class="node">
<title>A0</title>
<polygon fill="none" stroke="#000000" points="38,-296 38,-328 109,-328 109,-296 38,-296"/>
<text text-anchor="start" x="47.5245" y="-309" font-family="Helvetica,sans-Serif" font-size="10.00" fill="#000000">+ICustomer</text>
<polygon fill="none" stroke="#000000" points="38,-264 38,-296 109,-296 109,-264 38,-264"/>
<text text-anchor="start" x="57.6685" y="-277" font-family="Helvetica,sans-Serif" font-size="10.00" fill="#000000">Greet()</text>
</g>
<!-- A1 -->
<g id="node2" class="node">
<title>A1</title>
<polygon fill="none" stroke="#000000" points="0,-108 0,-140 146,-140 146,-108 0,-108"/>
<text text-anchor="start" x="48.414" y="-121" font-family="Helvetica,sans-Serif" font-size="10.00" fill="#000000">+Customer</text>
<polygon fill="none" stroke="#000000" points="0,-64 0,-108 146,-108 146,-64 0,-64"/>
<text text-anchor="start" x="43.9655" y="-89" font-family="Helvetica,sans-Serif" font-size="10.00" fill="#000000">+name:string</text>
<text text-anchor="start" x="16.891" y="-77" font-family="Helvetica,sans-Serif" font-size="10.00" fill="#000000">&#45;creditCardNumber:string</text>
<polygon fill="none" stroke="#000000" points="0,-20 0,-64 146,-64 146,-20 0,-20"/>
<text text-anchor="start" x="9.5275" y="-45" font-family="Helvetica,sans-Serif" font-size="10.00" fill="#000000">+CreditCardNumber:string:w</text>
<text text-anchor="start" x="54.249" y="-33" font-family="Helvetica,sans-Serif" font-size="10.00" fill="#000000">+Greet()</text>
<polygon fill="none" stroke="#000000" points="0,0 0,-20 146,-20 146,0 0,0"/>
</g>
<!-- A0&#45;&gt;A1 -->
<g id="edge1" class="edge">
<title>A0&#45;&gt;A1</title>
<path fill="none" stroke="#000000" d="M73,-253.3072C73,-221.4133 73,-177.1203 73,-140.0638"/>
<polygon fill="none" stroke="#000000" points="69.5001,-253.6197 73,-263.6197 76.5001,-253.6197 69.5001,-253.6197"/>
</g>
<!-- A2 -->
<g id="node3" class="node">
<title>A2</title>
<polygon fill="none" stroke="#000000" points="182,-370 182,-402 288,-402 288,-370 182,-370"/>
<text text-anchor="start" x="207.915" y="-383" font-family="Helvetica,sans-Serif" font-size="10.00" fill="#000000">+A:HotDrink</text>
<polygon fill="none" stroke="#000000" points="182,-290 182,-370 288,-370 288,-290 182,-290"/>
<text text-anchor="start" x="206.516" y="-351" font-family="Helvetica,sans-Serif" font-size="10.00" fill="#000000">+instant:bool</text>
<text text-anchor="start" x="208.195" y="-339" font-family="Helvetica,sans-Serif" font-size="10.00" fill="#000000">+mimlk:bool</text>
<text text-anchor="start" x="209.9945" y="-327" font-family="Helvetica,sans-Serif" font-size="10.00" fill="#000000">&#45;sugar:byte</text>
<text text-anchor="start" x="205.686" y="-315" font-family="Helvetica,sans-Serif" font-size="10.00" fill="#000000">+brand:string</text>
<text text-anchor="start" x="209.5795" y="-303" font-family="Helvetica,sans-Serif" font-size="10.00" fill="#000000">+size:string</text>
<polygon fill="none" stroke="#000000" points="182,-234 182,-290 288,-290 288,-234 182,-234"/>
<text text-anchor="start" x="191.513" y="-271" font-family="Helvetica,sans-Serif" font-size="10.00" fill="#000000">+AddSugar(amount</text>
<text text-anchor="start" x="219.9975" y="-259" font-family="Helvetica,sans-Serif" font-size="10.00" fill="#000000">byte):v</text>
<text text-anchor="start" x="210.135" y="-247" font-family="Helvetica,sans-Serif" font-size="10.00" fill="#000000">+Steam():a</text>
<polygon fill="none" stroke="#000000" points="182,-190 182,-234 288,-234 288,-190 182,-190"/>
<text text-anchor="start" x="228.7515" y="-215" font-family="Helvetica,sans-Serif" font-size="10.00" fill="#000000">+()</text>
<text text-anchor="start" x="202.357" y="-203" font-family="Helvetica,sans-Serif" font-size="10.00" fill="#000000">+(brand:string)</text>
</g>
<!-- A3 -->
<g id="node4" class="node">
<title>A3</title>
<polygon fill="none" stroke="#000000" points="165,-108 165,-140 306,-140 306,-108 165,-108"/>
<text text-anchor="start" x="203.406" y="-121" font-family="Helvetica,sans-Serif" font-size="10.00" fill="#000000">+CupOfCoffee</text>
<polygon fill="none" stroke="#000000" points="165,-76 165,-108 306,-108 306,-76 165,-76"/>
<text text-anchor="start" x="196.737" y="-89" font-family="Helvetica,sans-Serif" font-size="10.00" fill="#000000">+beanType:string</text>
<polygon fill="none" stroke="#000000" points="165,-44 165,-76 306,-76 306,-44 165,-44"/>
<text text-anchor="start" x="210.635" y="-57" font-family="Helvetica,sans-Serif" font-size="10.00" fill="#000000">+Steam():o</text>
<polygon fill="none" stroke="#000000" points="165,0 165,-44 306,-44 306,0 165,0"/>
<text text-anchor="start" x="229.2515" y="-25" font-family="Helvetica,sans-Serif" font-size="10.00" fill="#000000">+()</text>
<text text-anchor="start" x="174.5175" y="-13" font-family="Helvetica,sans-Serif" font-size="10.00" fill="#000000">+(brand:string):base(brand)</text>
</g>
<!-- A2&#45;&gt;A3 -->
<g id="edge2" class="edge">
<title>A2&#45;&gt;A3</title>
<path fill="none" stroke="#000000" stroke-dasharray="5,2" d="M235,-179.6621C235,-166.2104 235,-152.8219 235,-140.2599"/>
<polygon fill="#000000" stroke="#000000" points="235,-189.9482 230.5001,-179.9482 235,-184.9482 235.0001,-179.9482 235.0001,-179.9482 235.0001,-179.9482 235,-184.9482 239.5001,-179.9483 235,-189.9482 235,-189.9482"/>
</g>
</g>
</svg>
