<?xml version="1.0" encoding="UTF-8" standalone="no"?>
<!DOCTYPE svg PUBLIC "-//W3C//DTD SVG 1.1//EN"
 "http://www.w3.org/Graphics/SVG/1.1/DTD/svg11.dtd">
<!-- Generated by graphviz version 2.40.1 (20161225.0304)
 -->
<!-- Title: G Pages: 1 -->
<svg width="649pt" height="658pt"
 viewBox="0.00 0.00 649.00 658.00" xmlns="http://www.w3.org/2000/svg" xmlns:xlink="http://www.w3.org/1999/xlink">
<g id="graph0" class="graph" transform="scale(1 1) rotate(0) translate(4 654)">
<title>G</title>
<polygon fill="#ffffff" stroke="transparent" points="-4,4 -4,-654 645,-654 645,4 -4,4"/>
<!-- A0 -->
<g id="node1" class="node">
<title>A0</title>
<polygon fill="none" stroke="#000000" points="100,-618 100,-650 253,-650 253,-618 100,-618"/>
<text text-anchor="start" x="155.2435" y="-631" font-family="Helvetica,sans-Serif" font-size="10.00" fill="#000000">+A:Game</text>
<polygon fill="none" stroke="#000000" points="100,-562 100,-618 253,-618 253,-562 100,-562"/>
<text text-anchor="start" x="147.4655" y="-599" font-family="Helvetica,sans-Serif" font-size="10.00" fill="#000000">+name:string</text>
<text text-anchor="start" x="136.067" y="-587" font-family="Helvetica,sans-Serif" font-size="10.00" fill="#000000">+chats:List&lt;Chat&gt;</text>
<text text-anchor="start" x="122.7295" y="-575" font-family="Helvetica,sans-Serif" font-size="10.00" fill="#000000">+meetups:List&lt;Meetup&gt;</text>
<polygon fill="none" stroke="#000000" points="100,-530 100,-562 253,-562 253,-530 100,-530"/>
<text text-anchor="start" x="109.9525" y="-543" font-family="Helvetica,sans-Serif" font-size="10.00" fill="#000000">+AddMeetup(meetup:Meetup)</text>
</g>
<!-- A1 -->
<g id="node2" class="node">
<title>A1</title>
<polygon fill="none" stroke="#000000" points="0,-448 0,-480 180,-480 180,-448 0,-448"/>
<text text-anchor="start" x="76.5225" y="-461" font-family="Helvetica,sans-Serif" font-size="10.00" fill="#000000">+Chat</text>
<polygon fill="none" stroke="#000000" points="0,-404 0,-448 180,-448 180,-404 0,-404"/>
<text text-anchor="start" x="50.687" y="-429" font-family="Helvetica,sans-Serif" font-size="10.00" fill="#000000">+chatName:string</text>
<text text-anchor="start" x="29.0085" y="-417" font-family="Helvetica,sans-Serif" font-size="10.00" fill="#000000">+messages:List&lt;Message&gt;</text>
<polygon fill="none" stroke="#000000" points="0,-372 0,-404 180,-404 180,-372 0,-372"/>
<text text-anchor="start" x="9.8415" y="-385" font-family="Helvetica,sans-Serif" font-size="10.00" fill="#000000">+SendMessage(message:Message)</text>
</g>
<!-- A0&#45;&gt;A1 -->
<g id="edge1" class="edge">
<title>A0&#45;&gt;A1</title>
<path fill="none" stroke="#000000" d="M139.8109,-520.9883C132.6589,-507.3496 125.249,-493.219 118.3998,-480.1578"/>
<polygon fill="#000000" stroke="#000000" points="144.4651,-529.8637 135.8357,-523.0974 142.143,-525.4356 139.8209,-521.0075 139.8209,-521.0075 139.8209,-521.0075 142.143,-525.4356 143.8062,-518.9176 144.4651,-529.8637 144.4651,-529.8637"/>
</g>
<!-- A3 -->
<g id="node4" class="node">
<title>A3</title>
<polygon fill="none" stroke="#000000" points="199,-438 199,-470 324,-470 324,-438 199,-438"/>
<text text-anchor="start" x="241.9085" y="-451" font-family="Helvetica,sans-Serif" font-size="10.00" fill="#000000">+Meetup</text>
<polygon fill="none" stroke="#000000" points="199,-382 199,-438 324,-438 324,-382 199,-382"/>
<text text-anchor="start" x="227.742" y="-419" font-family="Helvetica,sans-Serif" font-size="10.00" fill="#000000">+location:string</text>
<text text-anchor="start" x="225.797" y="-407" font-family="Helvetica,sans-Serif" font-size="10.00" fill="#000000">+date:DateTime</text>
<text text-anchor="start" x="208.8415" y="-395" font-family="Helvetica,sans-Serif" font-size="10.00" fill="#000000">+attending:List&lt;Profile&gt;</text>
</g>
<!-- A0&#45;&gt;A3 -->
<g id="edge3" class="edge">
<title>A0&#45;&gt;A3</title>
<path fill="none" stroke="#000000" d="M211.7796,-520.9664C220.6846,-503.7849 229.9936,-485.8242 238.0888,-470.2052"/>
<polygon fill="#000000" stroke="#000000" points="207.1682,-529.8637 207.7746,-518.9146 209.469,-525.4245 211.7699,-520.9853 211.7699,-520.9853 211.7699,-520.9853 209.469,-525.4245 215.7651,-523.0561 207.1682,-529.8637 207.1682,-529.8637"/>
</g>
<!-- A2 -->
<g id="node3" class="node">
<title>A2</title>
<polygon fill="none" stroke="#000000" points="153,-258 153,-290 234,-290 234,-258 153,-258"/>
<text text-anchor="start" x="170.298" y="-271" font-family="Helvetica,sans-Serif" font-size="10.00" fill="#000000">+Message</text>
<polygon fill="none" stroke="#000000" points="153,-214 153,-258 234,-258 234,-214 153,-214"/>
<text text-anchor="start" x="171.8295" y="-239" font-family="Helvetica,sans-Serif" font-size="10.00" fill="#000000">text:string</text>
<text text-anchor="start" x="162.6615" y="-227" font-family="Helvetica,sans-Serif" font-size="10.00" fill="#000000">sender:Profile</text>
</g>
<!-- A1&#45;&gt;A2 -->
<g id="edge2" class="edge">
<title>A1&#45;&gt;A2</title>
<path fill="none" stroke="#000000" d="M127.2719,-363.0358C141.738,-338.5979 157.8294,-311.4144 170.4698,-290.0607"/>
<polygon fill="#000000" stroke="#000000" points="122.0252,-371.8991 123.2468,-361.0015 124.5722,-367.5964 127.1192,-363.2938 127.1192,-363.2938 127.1192,-363.2938 124.5722,-367.5964 130.9916,-365.5861 122.0252,-371.8991 122.0252,-371.8991"/>
</g>
<!-- A4 -->
<g id="node5" class="node">
<title>A4</title>
<polygon fill="none" stroke="#000000" points="367,-100 367,-132 525,-132 525,-100 367,-100"/>
<text text-anchor="start" x="426.414" y="-113" font-family="Helvetica,sans-Serif" font-size="10.00" fill="#000000">+Profiles</text>
<polygon fill="none" stroke="#000000" points="367,-80 367,-100 525,-100 525,-80 367,-80"/>
<polygon fill="none" stroke="#000000" points="367,0 367,-80 525,-80 525,0 367,0"/>
<text text-anchor="start" x="401.138" y="-61" font-family="Helvetica,sans-Serif" font-size="10.00" fill="#000000">+DMButton__Click()</text>
<text text-anchor="start" x="376.683" y="-49" font-family="Helvetica,sans-Serif" font-size="10.00" fill="#000000">+StatsListView__ItemActivate()</text>
<text text-anchor="start" x="405.7225" y="-37" font-family="Helvetica,sans-Serif" font-size="10.00" fill="#000000">&#45;UsernameLabel()</text>
<text text-anchor="start" x="421.5555" y="-25" font-family="Helvetica,sans-Serif" font-size="10.00" fill="#000000">&#45;BioLabel()</text>
<text text-anchor="start" x="386.1305" y="-13" font-family="Helvetica,sans-Serif" font-size="10.00" fill="#000000">+PhotoPictureBox__Click()</text>
</g>
<!-- A2&#45;&gt;A4 -->
<g id="edge12" class="edge">
<title>A2&#45;&gt;A4</title>
<path fill="none" stroke="#000000" d="M241.9029,-216.0476C277.3282,-190.0038 325.9831,-154.2338 366.902,-124.1511"/>
<polygon fill="#000000" stroke="#000000" points="233.6488,-222.1159 239.0403,-212.5669 237.6773,-219.1542 241.7058,-216.1925 241.7058,-216.1925 241.7058,-216.1925 237.6773,-219.1542 244.3713,-219.8182 233.6488,-222.1159 233.6488,-222.1159"/>
</g>
<!-- A5 -->
<g id="node6" class="node">
<title>A5</title>
<polygon fill="none" stroke="#000000" points="475,-616 475,-648 579,-648 579,-616 475,-616"/>
<text text-anchor="start" x="487.6775" y="-629" font-family="Helvetica,sans-Serif" font-size="10.00" fill="#000000">+A:ALeaderboard</text>
<polygon fill="none" stroke="#000000" points="475,-596 475,-616 579,-616 579,-596 475,-596"/>
<polygon fill="none" stroke="#000000" points="475,-564 475,-596 579,-596 579,-564 475,-564"/>
<text text-anchor="start" x="485.1885" y="-577" font-family="Helvetica,sans-Serif" font-size="10.00" fill="#000000">+GameInfo():string</text>
<polygon fill="none" stroke="#000000" points="475,-532 475,-564 579,-564 579,-532 475,-532"/>
<text text-anchor="start" x="484.634" y="-545" font-family="Helvetica,sans-Serif" font-size="10.00" fill="#000000">+PlayerInfo():string</text>
</g>
<!-- A6 -->
<g id="node7" class="node">
<title>A6</title>
<polygon fill="none" stroke="#000000" points="342,-442 342,-474 453,-474 453,-442 342,-442"/>
<text text-anchor="start" x="372.6295" y="-455" font-family="Helvetica,sans-Serif" font-size="10.00" fill="#000000">+GameInfo</text>
<polygon fill="none" stroke="#000000" points="342,-410 342,-442 453,-442 453,-410 342,-410"/>
<text text-anchor="start" x="368.4655" y="-423" font-family="Helvetica,sans-Serif" font-size="10.00" fill="#000000">+game:string</text>
<polygon fill="none" stroke="#000000" points="342,-378 342,-410 453,-410 453,-378 342,-378"/>
<text text-anchor="start" x="351.5195" y="-391" font-family="Helvetica,sans-Serif" font-size="10.00" fill="#000000">+GameInfo():string:o</text>
</g>
<!-- A5&#45;&gt;A6 -->
<g id="edge4" class="edge">
<title>A5&#45;&gt;A6</title>
<path fill="none" stroke="#000000" stroke-dasharray="5,2" d="M474.4129,-523.6593C461.265,-507.0727 447.4133,-489.5983 435.1191,-474.0887"/>
<polygon fill="#000000" stroke="#000000" points="480.8008,-531.718 471.0624,-526.6767 477.6948,-527.7997 474.5889,-523.8814 474.5889,-523.8814 474.5889,-523.8814 477.6948,-527.7997 478.1153,-521.086 480.8008,-531.718 480.8008,-531.718"/>
</g>
<!-- A7 -->
<g id="node8" class="node">
<title>A7</title>
<polygon fill="none" stroke="#000000" points="471,-442 471,-474 584,-474 584,-442 471,-442"/>
<text text-anchor="start" x="502.075" y="-455" font-family="Helvetica,sans-Serif" font-size="10.00" fill="#000000">+PlayerInfo</text>
<polygon fill="none" stroke="#000000" points="471,-410 471,-442 584,-442 584,-410 471,-410"/>
<text text-anchor="start" x="488.742" y="-423" font-family="Helvetica,sans-Serif" font-size="10.00" fill="#000000">+username:string</text>
<polygon fill="none" stroke="#000000" points="471,-378 471,-410 584,-410 584,-378 471,-378"/>
<text text-anchor="start" x="480.965" y="-391" font-family="Helvetica,sans-Serif" font-size="10.00" fill="#000000">+PlayerInfo():string:o</text>
</g>
<!-- A5&#45;&gt;A7 -->
<g id="edge5" class="edge">
<title>A5&#45;&gt;A7</title>
<path fill="none" stroke="#000000" stroke-dasharray="5,2" d="M527,-521.3922C527,-505.4882 527,-488.8934 527,-474.0887"/>
<polygon fill="#000000" stroke="#000000" points="527,-531.718 522.5001,-521.7179 527,-526.718 527.0001,-521.718 527.0001,-521.718 527.0001,-521.718 527,-526.718 531.5001,-521.718 527,-531.718 527,-531.718"/>
</g>
<!-- A9 -->
<g id="node10" class="node">
<title>A9</title>
<polygon fill="none" stroke="#000000" points="571,-290 571,-322 641,-322 641,-290 571,-290"/>
<text text-anchor="start" x="586.139" y="-303" font-family="Helvetica,sans-Serif" font-size="10.00" fill="#000000">+FilterBy</text>
<polygon fill="none" stroke="#000000" points="571,-246 571,-290 641,-290 641,-246 571,-246"/>
<text text-anchor="start" x="586.9695" y="-271" font-family="Helvetica,sans-Serif" font-size="10.00" fill="#000000">+time:int</text>
<text text-anchor="start" x="584.189" y="-259" font-family="Helvetica,sans-Serif" font-size="10.00" fill="#000000">+score:int</text>
<polygon fill="none" stroke="#000000" points="571,-214 571,-246 641,-246 641,-214 571,-214"/>
<text text-anchor="start" x="582.809" y="-227" font-family="Helvetica,sans-Serif" font-size="10.00" fill="#000000">+ByTime()</text>
<polygon fill="none" stroke="#000000" points="571,-182 571,-214 641,-214 641,-182 571,-182"/>
<text text-anchor="start" x="580.859" y="-195" font-family="Helvetica,sans-Serif" font-size="10.00" fill="#000000">+ByScore()</text>
</g>
<!-- A5&#45;&gt;A9 -->
<g id="edge8" class="edge">
<title>A5&#45;&gt;A9</title>
<path fill="none" stroke="#000000" stroke-dasharray="5,2" d="M573.2277,-523.0341C580.7414,-509.3294 587.5193,-494.6134 592,-480 607.7236,-428.7191 610.7408,-367.9838 610.0888,-322.0977"/>
<polygon fill="#000000" stroke="#000000" points="568.2005,-531.8828 569.2276,-520.9651 570.6704,-527.5354 573.1403,-523.188 573.1403,-523.188 573.1403,-523.188 570.6704,-527.5354 577.053,-525.4109 568.2005,-531.8828 568.2005,-531.8828"/>
</g>
<!-- A6&#45;&gt;A4 -->
<g id="edge9" class="edge">
<title>A6&#45;&gt;A4</title>
<path fill="none" stroke="#000000" d="M382.0377,-367.8855C371.6516,-317.8003 362.3841,-243.9894 379,-182 383.5762,-164.9275 391.3403,-147.7682 399.9961,-132.0783"/>
<polygon fill="#000000" stroke="#000000" points="384.1921,-377.8877 377.6872,-369.0595 383.1392,-372.9998 382.0864,-368.1119 382.0864,-368.1119 382.0864,-368.1119 383.1392,-372.9998 386.4855,-367.1644 384.1921,-377.8877 384.1921,-377.8877"/>
</g>
<!-- A8 -->
<g id="node9" class="node">
<title>A8</title>
<polygon fill="none" stroke="#000000" points="389,-268 389,-300 504,-300 504,-268 389,-268"/>
<text text-anchor="start" x="431.912" y="-281" font-family="Helvetica,sans-Serif" font-size="10.00" fill="#000000">+Rank</text>
<polygon fill="none" stroke="#000000" points="389,-236 389,-268 504,-268 504,-236 389,-236"/>
<text text-anchor="start" x="411.6315" y="-249" font-family="Helvetica,sans-Serif" font-size="10.00" fill="#000000">+playerRank:int</text>
<polygon fill="none" stroke="#000000" points="389,-204 389,-236 504,-236 504,-204 389,-204"/>
<text text-anchor="start" x="398.5795" y="-217" font-family="Helvetica,sans-Serif" font-size="10.00" fill="#000000">+SortPlayerRank():int</text>
</g>
<!-- A6&#45;&gt;A8 -->
<g id="edge7" class="edge">
<title>A6&#45;&gt;A8</title>
<path fill="none" stroke="#000000" d="M413.3085,-368.0883C419.5153,-346.0477 426.5148,-321.1924 432.44,-300.152"/>
<polygon fill="#000000" stroke="#000000" points="410.5192,-377.9931 408.8984,-367.1477 411.8745,-373.1803 413.2299,-368.3675 413.2299,-368.3675 413.2299,-368.3675 411.8745,-373.1803 417.5614,-369.5873 410.5192,-377.9931 410.5192,-377.9931"/>
</g>
<!-- A7&#45;&gt;A4 -->
<g id="edge10" class="edge">
<title>A7&#45;&gt;A4</title>
<path fill="none" stroke="#000000" d="M530.7253,-367.6183C532.2206,-317.3656 530.2962,-243.459 512,-182 506.9426,-165.0114 499.014,-147.8176 490.382,-132.0582"/>
<polygon fill="#000000" stroke="#000000" points="530.3718,-377.656 526.2266,-367.5038 530.5478,-372.6591 530.7238,-367.6622 530.7238,-367.6622 530.7238,-367.6622 530.5478,-372.6591 535.221,-367.8206 530.3718,-377.656 530.3718,-377.656"/>
</g>
<!-- A7&#45;&gt;A8 -->
<g id="edge6" class="edge">
<title>A7&#45;&gt;A8</title>
<path fill="none" stroke="#000000" d="M500.3181,-368.6833C489.9895,-346.4959 478.2985,-321.382 468.4156,-300.152"/>
<polygon fill="#000000" stroke="#000000" points="504.652,-377.9931 496.352,-370.8265 502.5418,-373.4602 500.4316,-368.9273 500.4316,-368.9273 500.4316,-368.9273 502.5418,-373.4602 504.5112,-367.0281 504.652,-377.9931 504.652,-377.9931"/>
</g>
<!-- A8&#45;&gt;A4 -->
<g id="edge13" class="edge">
<title>A8&#45;&gt;A4</title>
<path fill="none" stroke="#000000" d="M446,-193.406C446,-174.0069 446,-152.2827 446,-132.3441"/>
<polygon fill="#000000" stroke="#000000" points="446,-203.6162 441.5001,-193.6162 446,-198.6162 446.0001,-193.6162 446.0001,-193.6162 446.0001,-193.6162 446,-198.6162 450.5001,-193.6163 446,-203.6162 446,-203.6162"/>
</g>
<!-- A9&#45;&gt;A4 -->
<g id="edge11" class="edge">
<title>A9&#45;&gt;A4</title>
<path fill="none" stroke="#000000" d="M564.2333,-203.2364C558.121,-196.1105 551.9,-188.8637 546,-182 532.1339,-165.8692 517.1685,-148.4921 503.145,-132.2228"/>
<polygon fill="#000000" stroke="#000000" points="570.8029,-210.8973 560.8772,-206.2355 567.548,-207.1018 564.2932,-203.3062 564.2932,-203.3062 564.2932,-203.3062 567.548,-207.1018 567.7092,-200.3768 570.8029,-210.8973 570.8029,-210.8973"/>
</g>
</g>
</svg>
