<?xml version="1.0" encoding="UTF-8" standalone="no"?>
<!DOCTYPE svg PUBLIC "-//W3C//DTD SVG 1.1//EN"
 "http://www.w3.org/Graphics/SVG/1.1/DTD/svg11.dtd">
<!-- Generated by graphviz version 2.40.1 (20161225.0304)
 -->
<!-- Title: G Pages: 1 -->
<svg width="1054pt" height="642pt"
 viewBox="0.00 0.00 1053.50 642.00" xmlns="http://www.w3.org/2000/svg" xmlns:xlink="http://www.w3.org/1999/xlink">
<g id="graph0" class="graph" transform="scale(1 1) rotate(0) translate(4 638)">
<title>G</title>
<polygon fill="#ffffff" stroke="transparent" points="-4,4 -4,-638 1049.5,-638 1049.5,4 -4,4"/>
<!-- A0 -->
<g id="node1" class="node">
<title>A0</title>
<polygon fill="none" stroke="#000000" points=".5,-566 .5,-598 103.5,-598 103.5,-566 .5,-566"/>
<text text-anchor="start" x="17.402" y="-579" font-family="Helvetica,sans-Serif" font-size="10.00" fill="#000000">+PeopleListInfo</text>
<polygon fill="none" stroke="#000000" points=".5,-546 .5,-566 103.5,-566 103.5,-546 .5,-546"/>
<polygon fill="none" stroke="#000000" points=".5,-514 .5,-546 103.5,-546 103.5,-514 .5,-514"/>
<text text-anchor="start" x="10.1875" y="-527" font-family="Helvetica,sans-Serif" font-size="10.00" fill="#000000">+MakePeopleList()</text>
<polygon fill="none" stroke="#000000" points=".5,-494 .5,-514 103.5,-514 103.5,-494 .5,-494"/>
</g>
<!-- A1 -->
<g id="node2" class="node">
<title>A1</title>
<polygon fill="none" stroke="#000000" points="121.5,-602 121.5,-634 251.5,-634 251.5,-602 121.5,-602"/>
<text text-anchor="start" x="159.6805" y="-615" font-family="Helvetica,sans-Serif" font-size="10.00" fill="#000000">+PeopleInfo</text>
<polygon fill="none" stroke="#000000" points="121.5,-498 121.5,-602 251.5,-602 251.5,-498 121.5,-498"/>
<text text-anchor="start" x="147.742" y="-583" font-family="Helvetica,sans-Serif" font-size="10.00" fill="#000000">+username:string</text>
<text text-anchor="start" x="131.3495" y="-571" font-family="Helvetica,sans-Serif" font-size="10.00" fill="#000000">+gameNames:SortedList</text>
<text text-anchor="start" x="146.0775" y="-559" font-family="Helvetica,sans-Serif" font-size="10.00" fill="#000000">+Times:SortedList</text>
<text text-anchor="start" x="148.017" y="-547" font-family="Helvetica,sans-Serif" font-size="10.00" fill="#000000">+Rank:SortedList</text>
<text text-anchor="start" x="151.0725" y="-535" font-family="Helvetica,sans-Serif" font-size="10.00" fill="#000000">+bioLabel:string</text>
<text text-anchor="start" x="148.153" y="-523" font-family="Helvetica,sans-Serif" font-size="10.00" fill="#000000">onlineStatuc:bool</text>
<text text-anchor="start" x="135.5095" y="-511" font-family="Helvetica,sans-Serif" font-size="10.00" fill="#000000">+photoLinks:SortedList</text>
<polygon fill="none" stroke="#000000" points="121.5,-478 121.5,-498 251.5,-498 251.5,-478 121.5,-478"/>
<polygon fill="none" stroke="#000000" points="121.5,-458 121.5,-478 251.5,-478 251.5,-458 121.5,-458"/>
</g>
<!-- A2 -->
<g id="node3" class="node">
<title>A2</title>
<polygon fill="none" stroke="#000000" points="270.5,-574 270.5,-606 423.5,-606 423.5,-574 270.5,-574"/>
<text text-anchor="start" x="325.7435" y="-587" font-family="Helvetica,sans-Serif" font-size="10.00" fill="#000000">+A:Game</text>
<polygon fill="none" stroke="#000000" points="270.5,-518 270.5,-574 423.5,-574 423.5,-518 270.5,-518"/>
<text text-anchor="start" x="317.9655" y="-555" font-family="Helvetica,sans-Serif" font-size="10.00" fill="#000000">+name:string</text>
<text text-anchor="start" x="306.567" y="-543" font-family="Helvetica,sans-Serif" font-size="10.00" fill="#000000">+chats:List&lt;Chat&gt;</text>
<text text-anchor="start" x="293.2295" y="-531" font-family="Helvetica,sans-Serif" font-size="10.00" fill="#000000">+meetups:List&lt;Meetup&gt;</text>
<polygon fill="none" stroke="#000000" points="270.5,-486 270.5,-518 423.5,-518 423.5,-486 270.5,-486"/>
<text text-anchor="start" x="280.4525" y="-499" font-family="Helvetica,sans-Serif" font-size="10.00" fill="#000000">+AddMeetup(meetup:Meetup)</text>
</g>
<!-- A3 -->
<g id="node4" class="node">
<title>A3</title>
<polygon fill="none" stroke="#000000" points="170.5,-364 170.5,-396 350.5,-396 350.5,-364 170.5,-364"/>
<text text-anchor="start" x="247.0225" y="-377" font-family="Helvetica,sans-Serif" font-size="10.00" fill="#000000">+Chat</text>
<polygon fill="none" stroke="#000000" points="170.5,-320 170.5,-364 350.5,-364 350.5,-320 170.5,-320"/>
<text text-anchor="start" x="221.187" y="-345" font-family="Helvetica,sans-Serif" font-size="10.00" fill="#000000">+chatName:string</text>
<text text-anchor="start" x="199.5085" y="-333" font-family="Helvetica,sans-Serif" font-size="10.00" fill="#000000">+messages:List&lt;Message&gt;</text>
<polygon fill="none" stroke="#000000" points="170.5,-288 170.5,-320 350.5,-320 350.5,-288 170.5,-288"/>
<text text-anchor="start" x="180.3415" y="-301" font-family="Helvetica,sans-Serif" font-size="10.00" fill="#000000">+SendMessage(message:Message)</text>
</g>
<!-- A2&#45;&gt;A3 -->
<g id="edge1" class="edge">
<title>A2&#45;&gt;A3</title>
<path fill="none" stroke="#000000" stroke-dasharray="5,2" d="M317.1547,-476.3901C306.0946,-450.1547 293.6898,-420.7294 283.3136,-396.116"/>
<polygon fill="#000000" stroke="#000000" points="321.1623,-485.8966 313.131,-478.4301 319.22,-481.2893 317.2776,-476.682 317.2776,-476.682 317.2776,-476.682 319.22,-481.2893 321.4242,-474.9339 321.1623,-485.8966 321.1623,-485.8966"/>
</g>
<!-- A5 -->
<g id="node6" class="node">
<title>A5</title>
<polygon fill="none" stroke="#000000" points="369.5,-354 369.5,-386 494.5,-386 494.5,-354 369.5,-354"/>
<text text-anchor="start" x="412.4085" y="-367" font-family="Helvetica,sans-Serif" font-size="10.00" fill="#000000">+Meetup</text>
<polygon fill="none" stroke="#000000" points="369.5,-298 369.5,-354 494.5,-354 494.5,-298 369.5,-298"/>
<text text-anchor="start" x="398.242" y="-335" font-family="Helvetica,sans-Serif" font-size="10.00" fill="#000000">+location:string</text>
<text text-anchor="start" x="396.297" y="-323" font-family="Helvetica,sans-Serif" font-size="10.00" fill="#000000">+date:DateTime</text>
<text text-anchor="start" x="379.3415" y="-311" font-family="Helvetica,sans-Serif" font-size="10.00" fill="#000000">+attending:List&lt;Profile&gt;</text>
</g>
<!-- A2&#45;&gt;A5 -->
<g id="edge3" class="edge">
<title>A2&#45;&gt;A5</title>
<path fill="none" stroke="#000000" stroke-dasharray="5,2" d="M375.5184,-476.3559C387.9679,-446.477 402.1392,-412.466 413.1086,-386.1393"/>
<polygon fill="#000000" stroke="#000000" points="371.5431,-485.8966 371.2354,-474.9351 373.4662,-481.2812 375.3893,-476.6659 375.3893,-476.6659 375.3893,-476.6659 373.4662,-481.2812 379.5431,-478.3967 371.5431,-485.8966 371.5431,-485.8966"/>
</g>
<!-- A4 -->
<g id="node5" class="node">
<title>A4</title>
<polygon fill="none" stroke="#000000" points="220.5,-188 220.5,-220 301.5,-220 301.5,-188 220.5,-188"/>
<text text-anchor="start" x="237.798" y="-201" font-family="Helvetica,sans-Serif" font-size="10.00" fill="#000000">+Message</text>
<polygon fill="none" stroke="#000000" points="220.5,-144 220.5,-188 301.5,-188 301.5,-144 220.5,-144"/>
<text text-anchor="start" x="239.3295" y="-169" font-family="Helvetica,sans-Serif" font-size="10.00" fill="#000000">text:string</text>
<text text-anchor="start" x="230.1615" y="-157" font-family="Helvetica,sans-Serif" font-size="10.00" fill="#000000">sender:Profile</text>
</g>
<!-- A3&#45;&gt;A4 -->
<g id="edge2" class="edge">
<title>A3&#45;&gt;A4</title>
<path fill="none" stroke="#000000" d="M260.5,-277.8112C260.5,-258.3748 260.5,-237.6416 260.5,-220.4512"/>
<polygon fill="#000000" stroke="#000000" points="260.5,-287.8313 256.0001,-277.8313 260.5,-282.8313 260.5001,-277.8313 260.5001,-277.8313 260.5001,-277.8313 260.5,-282.8313 265.0001,-277.8313 260.5,-287.8313 260.5,-287.8313"/>
</g>
<!-- A6 -->
<g id="node7" class="node">
<title>A6</title>
<polygon fill="none" stroke="#000000" points="703.5,-376 703.5,-408 861.5,-408 861.5,-376 703.5,-376"/>
<text text-anchor="start" x="762.914" y="-389" font-family="Helvetica,sans-Serif" font-size="10.00" fill="#000000">+Profiles</text>
<polygon fill="none" stroke="#000000" points="703.5,-356 703.5,-376 861.5,-376 861.5,-356 703.5,-356"/>
<polygon fill="none" stroke="#000000" points="703.5,-276 703.5,-356 861.5,-356 861.5,-276 703.5,-276"/>
<text text-anchor="start" x="737.638" y="-337" font-family="Helvetica,sans-Serif" font-size="10.00" fill="#000000">+DMButton__Click()</text>
<text text-anchor="start" x="713.183" y="-325" font-family="Helvetica,sans-Serif" font-size="10.00" fill="#000000">+StatsListView__ItemActivate()</text>
<text text-anchor="start" x="742.2225" y="-313" font-family="Helvetica,sans-Serif" font-size="10.00" fill="#000000">&#45;UsernameLabel()</text>
<text text-anchor="start" x="758.0555" y="-301" font-family="Helvetica,sans-Serif" font-size="10.00" fill="#000000">&#45;BioLabel()</text>
<text text-anchor="start" x="722.6305" y="-289" font-family="Helvetica,sans-Serif" font-size="10.00" fill="#000000">+PhotoPictureBox__Click()</text>
</g>
<!-- A10 -->
<g id="node11" class="node">
<title>A10</title>
<polygon fill="none" stroke="#000000" points="618.5,-194 618.5,-226 763.5,-226 763.5,-194 618.5,-194"/>
<text text-anchor="start" x="663.3605" y="-207" font-family="Helvetica,sans-Serif" font-size="10.00" fill="#000000">+UserProfile</text>
<polygon fill="none" stroke="#000000" points="618.5,-138 618.5,-194 763.5,-194 763.5,-138 618.5,-138"/>
<text text-anchor="start" x="643.3645" y="-175" font-family="Helvetica,sans-Serif" font-size="10.00" fill="#000000">+ViewProfile__Click()</text>
<text text-anchor="start" x="628.0775" y="-163" font-family="Helvetica,sans-Serif" font-size="10.00" fill="#000000"> +NextProfileButton__Click()</text>
<text text-anchor="start" x="640.01" y="-151" font-family="Helvetica,sans-Serif" font-size="10.00" fill="#000000"> +preferences:List&lt;int&gt;</text>
</g>
<!-- A6&#45;&gt;A10 -->
<g id="edge7" class="edge">
<title>A6&#45;&gt;A10</title>
<path fill="none" stroke="#000000" d="M739.5637,-267.3282C731.5169,-253.3338 723.3445,-239.121 716.0374,-226.4129"/>
<polygon fill="none" stroke="#000000" points="736.53,-269.0737 744.5489,-275.9981 742.5983,-265.5844 736.53,-269.0737"/>
</g>
<!-- A7 -->
<g id="node8" class="node">
<title>A7</title>
<polygon fill="none" stroke="#000000" points="651.5,-572 651.5,-604 733.5,-604 733.5,-572 651.5,-572"/>
<text text-anchor="start" x="661.236" y="-585" font-family="Helvetica,sans-Serif" font-size="10.00" fill="#000000">+Leaderboard</text>
<polygon fill="none" stroke="#000000" points="651.5,-552 651.5,-572 733.5,-572 733.5,-552 651.5,-552"/>
<polygon fill="none" stroke="#000000" points="651.5,-508 651.5,-552 733.5,-552 733.5,-508 651.5,-508"/>
<text text-anchor="start" x="677.912" y="-533" font-family="Helvetica,sans-Serif" font-size="10.00" fill="#000000">+Rank</text>
<text text-anchor="start" x="672.639" y="-521" font-family="Helvetica,sans-Serif" font-size="10.00" fill="#000000">+FilterBy</text>
<polygon fill="none" stroke="#000000" points="651.5,-488 651.5,-508 733.5,-508 733.5,-488 651.5,-488"/>
</g>
<!-- A7&#45;&gt;A6 -->
<g id="edge6" class="edge">
<title>A7&#45;&gt;A6</title>
<path fill="none" stroke="#000000" d="M722.2296,-478.613C732.223,-455.9613 743.3563,-430.7257 753.308,-408.1686"/>
<polygon fill="#000000" stroke="#000000" points="718.1699,-487.8148 718.0893,-476.8492 720.1882,-483.2402 722.2064,-478.6656 722.2064,-478.6656 722.2064,-478.6656 720.1882,-483.2402 726.3235,-480.482 718.1699,-487.8148 718.1699,-487.8148"/>
</g>
<!-- A8 -->
<g id="node9" class="node">
<title>A8</title>
<polygon fill="none" stroke="#000000" points="751.5,-546 751.5,-578 813.5,-578 813.5,-546 751.5,-546"/>
<text text-anchor="start" x="761.2495" y="-559" font-family="Helvetica,sans-Serif" font-size="10.00" fill="#000000">+IFilterBy</text>
<polygon fill="none" stroke="#000000" points="751.5,-514 751.5,-546 813.5,-546 813.5,-514 751.5,-514"/>
<text text-anchor="start" x="765.5585" y="-527" font-family="Helvetica,sans-Serif" font-size="10.00" fill="#000000">FilterBy</text>
</g>
<!-- A8&#45;&gt;A6 -->
<g id="edge4" class="edge">
<title>A8&#45;&gt;A6</title>
<path fill="none" stroke="#000000" d="M782.5,-503.5975C782.5,-476.0872 782.5,-439.668 782.5,-408.3684"/>
<polygon fill="none" stroke="#000000" points="779.0001,-503.6756 782.5,-513.6756 786.0001,-503.6756 779.0001,-503.6756"/>
</g>
<!-- A9 -->
<g id="node10" class="node">
<title>A9</title>
<polygon fill="none" stroke="#000000" points="832.5,-546 832.5,-578 901.5,-578 901.5,-546 832.5,-546"/>
<text text-anchor="start" x="842.4085" y="-559" font-family="Helvetica,sans-Serif" font-size="10.00" fill="#000000">+IMessage</text>
<polygon fill="none" stroke="#000000" points="832.5,-514 832.5,-546 901.5,-546 901.5,-514 832.5,-514"/>
<text text-anchor="start" x="846.7175" y="-527" font-family="Helvetica,sans-Serif" font-size="10.00" fill="#000000">Message</text>
</g>
<!-- A9&#45;&gt;A6 -->
<g id="edge5" class="edge">
<title>A9&#45;&gt;A6</title>
<path fill="none" stroke="#000000" d="M849.3387,-504.3225C837.9768,-476.7293 822.8298,-439.9437 809.8282,-408.3684"/>
<polygon fill="none" stroke="#000000" points="846.146,-505.7615 853.19,-513.6756 852.6188,-503.0962 846.146,-505.7615"/>
</g>
<!-- A12 -->
<g id="node13" class="node">
<title>A12</title>
<polygon fill="none" stroke="#000000" points="620.5,-56 620.5,-88 761.5,-88 761.5,-56 620.5,-56"/>
<text text-anchor="start" x="662.25" y="-69" font-family="Helvetica,sans-Serif" font-size="10.00" fill="#000000">+UserDetails</text>
<polygon fill="none" stroke="#000000" points="620.5,0 620.5,-56 761.5,-56 761.5,0 620.5,0"/>
<text text-anchor="start" x="661.9655" y="-37" font-family="Helvetica,sans-Serif" font-size="10.00" fill="#000000">+name:string</text>
<text text-anchor="start" x="630.0165" y="-13" font-family="Helvetica,sans-Serif" font-size="10.00" fill="#000000">+favoriteGames:list&lt;string&gt;</text>
</g>
<!-- A10&#45;&gt;A12 -->
<g id="edge9" class="edge">
<title>A10&#45;&gt;A12</title>
<path fill="none" stroke="#000000" d="M690.5,-127.638C690.5,-114.526 690.5,-100.6749 690.5,-88.0984"/>
<polygon fill="#000000" stroke="#000000" points="690.5,-137.9565 686.0001,-127.9565 690.5,-132.9565 690.5001,-127.9565 690.5001,-127.9565 690.5001,-127.9565 690.5,-132.9565 695.0001,-127.9566 690.5,-137.9565 690.5,-137.9565"/>
</g>
<!-- A11 -->
<g id="node12" class="node">
<title>A11</title>
<polygon fill="none" stroke="#000000" points="512.5,-342 512.5,-374 685.5,-374 685.5,-342 512.5,-342"/>
<text text-anchor="start" x="574.1355" y="-355" font-family="Helvetica,sans-Serif" font-size="10.00" fill="#000000">+ProfileList</text>
<polygon fill="none" stroke="#000000" points="512.5,-310 512.5,-342 685.5,-342 685.5,-310 512.5,-310"/>
<text text-anchor="start" x="522.056" y="-323" font-family="Helvetica,sans-Serif" font-size="10.00" fill="#000000">Sort(UserProfile):List&lt;UserProfile&gt;</text>
</g>
<!-- A11&#45;&gt;A10 -->
<g id="edge8" class="edge">
<title>A11&#45;&gt;A10</title>
<path fill="none" stroke="#000000" d="M622.1711,-300.8329C635.3241,-277.9581 651.6927,-249.491 665.1113,-226.1542"/>
<polygon fill="#000000" stroke="#000000" points="617.1176,-309.6216 618.2012,-298.7094 619.61,-305.2871 622.1023,-300.9525 622.1023,-300.9525 622.1023,-300.9525 619.61,-305.2871 626.0034,-303.1957 617.1176,-309.6216 617.1176,-309.6216"/>
</g>
<!-- A13 -->
<g id="node14" class="node">
<title>A13</title>
<polygon fill="none" stroke="#000000" points="919.5,-570 919.5,-602 1045.5,-602 1045.5,-570 919.5,-570"/>
<text text-anchor="start" x="954.5745" y="-583" font-family="Helvetica,sans-Serif" font-size="10.00" fill="#000000">+HomePage</text>
<polygon fill="none" stroke="#000000" points="919.5,-490 919.5,-570 1045.5,-570 1045.5,-490 919.5,-490"/>
<text text-anchor="start" x="929.0195" y="-551" font-family="Helvetica,sans-Serif" font-size="10.00" fill="#000000">+Leaderboards__Click()</text>
<text text-anchor="start" x="946.251" y="-539" font-family="Helvetica,sans-Serif" font-size="10.00" fill="#000000">+Match__Click()</text>
<text text-anchor="start" x="945.6975" y="-527" font-family="Helvetica,sans-Serif" font-size="10.00" fill="#000000">+Profile__Click()</text>
<text text-anchor="start" x="946.806" y="-515" font-family="Helvetica,sans-Serif" font-size="10.00" fill="#000000">+Chats__Click()</text>
<text text-anchor="start" x="937.919" y="-503" font-family="Helvetica,sans-Serif" font-size="10.00" fill="#000000">+ProfileList__Click()</text>
</g>
</g>
</svg>
