<?xml version="1.0" encoding="UTF-8" standalone="no"?>
<!DOCTYPE svg PUBLIC "-//W3C//DTD SVG 1.1//EN"
 "http://www.w3.org/Graphics/SVG/1.1/DTD/svg11.dtd">
<!-- Generated by graphviz version 2.40.1 (20161225.0304)
 -->
<!-- Title: G Pages: 1 -->
<svg width="472pt" height="330pt"
 viewBox="0.00 0.00 471.50 330.00" xmlns="http://www.w3.org/2000/svg" xmlns:xlink="http://www.w3.org/1999/xlink">
<g id="graph0" class="graph" transform="scale(1 1) rotate(0) translate(4 326)">
<title>G</title>
<polygon fill="#ffffff" stroke="transparent" points="-4,4 -4,-326 467.5,-326 467.5,4 -4,4"/>
<!-- A0 -->
<g id="node1" class="node">
<title>A0</title>
<polygon fill="none" stroke="#000000" points="172.5,-100 172.5,-132 330.5,-132 330.5,-100 172.5,-100"/>
<text text-anchor="start" x="231.914" y="-113" font-family="Helvetica,sans-Serif" font-size="10.00" fill="#000000">+Profiles</text>
<polygon fill="none" stroke="#000000" points="172.5,-80 172.5,-100 330.5,-100 330.5,-80 172.5,-80"/>
<polygon fill="none" stroke="#000000" points="172.5,0 172.5,-80 330.5,-80 330.5,0 172.5,0"/>
<text text-anchor="start" x="206.638" y="-61" font-family="Helvetica,sans-Serif" font-size="10.00" fill="#000000">+DMButton__Click()</text>
<text text-anchor="start" x="182.183" y="-49" font-family="Helvetica,sans-Serif" font-size="10.00" fill="#000000">+StatsListView__ItemActivate()</text>
<text text-anchor="start" x="211.2225" y="-37" font-family="Helvetica,sans-Serif" font-size="10.00" fill="#000000">&#45;UsernameLabel()</text>
<text text-anchor="start" x="227.0555" y="-25" font-family="Helvetica,sans-Serif" font-size="10.00" fill="#000000">&#45;BioLabel()</text>
<text text-anchor="start" x="191.6305" y="-13" font-family="Helvetica,sans-Serif" font-size="10.00" fill="#000000">+PhotoPictureBox__Click()</text>
</g>
<!-- A1 -->
<g id="node2" class="node">
<title>A1</title>
<polygon fill="none" stroke="#000000" points=".5,-268 .5,-300 111.5,-300 111.5,-268 .5,-268"/>
<text text-anchor="start" x="31.1295" y="-281" font-family="Helvetica,sans-Serif" font-size="10.00" fill="#000000">+GameInfo</text>
<polygon fill="none" stroke="#000000" points=".5,-236 .5,-268 111.5,-268 111.5,-236 .5,-236"/>
<text text-anchor="start" x="26.9655" y="-249" font-family="Helvetica,sans-Serif" font-size="10.00" fill="#000000">+game:string</text>
<polygon fill="none" stroke="#000000" points=".5,-204 .5,-236 111.5,-236 111.5,-204 .5,-204"/>
<text text-anchor="start" x="10.0195" y="-217" font-family="Helvetica,sans-Serif" font-size="10.00" fill="#000000">+GameInfo():string:o</text>
</g>
<!-- A1&#45;&gt;A0 -->
<g id="edge1" class="edge">
<title>A1&#45;&gt;A0</title>
<path fill="none" stroke="#000000" d="M105.1451,-196.5577C109.9262,-191.567 114.7602,-186.6474 119.5,-182 136.4913,-165.3398 155.3827,-148.0631 173.4389,-132.0923"/>
<polygon fill="#000000" stroke="#000000" points="98.1953,-203.8972 101.8034,-193.5419 101.6331,-200.2666 105.071,-196.6359 105.071,-196.6359 105.071,-196.6359 101.6331,-200.2666 108.3386,-199.73 98.1953,-203.8972 98.1953,-203.8972"/>
</g>
<!-- A2 -->
<g id="node3" class="node">
<title>A2</title>
<polygon fill="none" stroke="#000000" points="129.5,-268 129.5,-300 242.5,-300 242.5,-268 129.5,-268"/>
<text text-anchor="start" x="160.575" y="-281" font-family="Helvetica,sans-Serif" font-size="10.00" fill="#000000">+PlayerInfo</text>
<polygon fill="none" stroke="#000000" points="129.5,-236 129.5,-268 242.5,-268 242.5,-236 129.5,-236"/>
<text text-anchor="start" x="147.242" y="-249" font-family="Helvetica,sans-Serif" font-size="10.00" fill="#000000">+username:string</text>
<polygon fill="none" stroke="#000000" points="129.5,-204 129.5,-236 242.5,-236 242.5,-204 129.5,-204"/>
<text text-anchor="start" x="139.465" y="-217" font-family="Helvetica,sans-Serif" font-size="10.00" fill="#000000">+PlayerInfo():string:o</text>
</g>
<!-- A2&#45;&gt;A0 -->
<g id="edge2" class="edge">
<title>A2&#45;&gt;A0</title>
<path fill="none" stroke="#000000" d="M206.1013,-193.9418C213.0328,-174.4075 220.8183,-152.4665 227.9585,-132.3441"/>
<polygon fill="#000000" stroke="#000000" points="202.6684,-203.6162 201.7717,-192.6871 204.3405,-198.9041 206.0126,-194.192 206.0126,-194.192 206.0126,-194.192 204.3405,-198.9041 210.2535,-195.6968 202.6684,-203.6162 202.6684,-203.6162"/>
</g>
<!-- A3 -->
<g id="node4" class="node">
<title>A3</title>
<polygon fill="none" stroke="#000000" points="260.5,-268 260.5,-300 375.5,-300 375.5,-268 260.5,-268"/>
<text text-anchor="start" x="303.412" y="-281" font-family="Helvetica,sans-Serif" font-size="10.00" fill="#000000">+Rank</text>
<polygon fill="none" stroke="#000000" points="260.5,-236 260.5,-268 375.5,-268 375.5,-236 260.5,-236"/>
<text text-anchor="start" x="283.1315" y="-249" font-family="Helvetica,sans-Serif" font-size="10.00" fill="#000000">+playerRank:int</text>
<polygon fill="none" stroke="#000000" points="260.5,-204 260.5,-236 375.5,-236 375.5,-204 260.5,-204"/>
<text text-anchor="start" x="270.0795" y="-217" font-family="Helvetica,sans-Serif" font-size="10.00" fill="#000000">+SortPlayerRank():int</text>
</g>
<!-- A3&#45;&gt;A0 -->
<g id="edge3" class="edge">
<title>A3&#45;&gt;A0</title>
<path fill="none" stroke="#000000" d="M296.8987,-193.9418C289.9672,-174.4075 282.1817,-152.4665 275.0415,-132.3441"/>
<polygon fill="#000000" stroke="#000000" points="300.3316,-203.6162 292.7465,-195.6968 298.6595,-198.9041 296.9874,-194.192 296.9874,-194.192 296.9874,-194.192 298.6595,-198.9041 301.2283,-192.6871 300.3316,-203.6162 300.3316,-203.6162"/>
</g>
<!-- A4 -->
<g id="node5" class="node">
<title>A4</title>
<polygon fill="none" stroke="#000000" points="393.5,-290 393.5,-322 463.5,-322 463.5,-290 393.5,-290"/>
<text text-anchor="start" x="408.639" y="-303" font-family="Helvetica,sans-Serif" font-size="10.00" fill="#000000">+FilterBy</text>
<polygon fill="none" stroke="#000000" points="393.5,-246 393.5,-290 463.5,-290 463.5,-246 393.5,-246"/>
<text text-anchor="start" x="409.4695" y="-271" font-family="Helvetica,sans-Serif" font-size="10.00" fill="#000000">+time:int</text>
<text text-anchor="start" x="406.689" y="-259" font-family="Helvetica,sans-Serif" font-size="10.00" fill="#000000">+score:int</text>
<polygon fill="none" stroke="#000000" points="393.5,-214 393.5,-246 463.5,-246 463.5,-214 393.5,-214"/>
<text text-anchor="start" x="405.309" y="-227" font-family="Helvetica,sans-Serif" font-size="10.00" fill="#000000">+ByTime()</text>
<polygon fill="none" stroke="#000000" points="393.5,-182 393.5,-214 463.5,-214 463.5,-182 393.5,-182"/>
<text text-anchor="start" x="403.359" y="-195" font-family="Helvetica,sans-Serif" font-size="10.00" fill="#000000">+ByScore()</text>
</g>
<!-- A4&#45;&gt;A0 -->
<g id="edge4" class="edge">
<title>A4&#45;&gt;A0</title>
<path fill="none" stroke="#000000" d="M387.0039,-184.9958C386.1744,-183.9813 385.3395,-182.9819 384.5,-182 368.4724,-163.2533 349.3735,-144.8263 330.7197,-128.3717"/>
<polygon fill="#000000" stroke="#000000" points="393.2466,-193.0269 383.5565,-187.8933 390.178,-189.0792 387.1094,-185.1316 387.1094,-185.1316 387.1094,-185.1316 390.178,-189.0792 390.6623,-182.3698 393.2466,-193.0269 393.2466,-193.0269"/>
</g>
</g>
</svg>
