<?xml version="1.0" encoding="UTF-8" standalone="no"?>
<!DOCTYPE svg PUBLIC "-//W3C//DTD SVG 1.1//EN"
 "http://www.w3.org/Graphics/SVG/1.1/DTD/svg11.dtd">
<!-- Generated by graphviz version 2.40.1 (20161225.0304)
 -->
<!-- Title: G Pages: 1 -->
<svg width="571pt" height="330pt"
 viewBox="0.00 0.00 571.00 330.00" xmlns="http://www.w3.org/2000/svg" xmlns:xlink="http://www.w3.org/1999/xlink">
<g id="graph0" class="graph" transform="scale(1 1) rotate(0) translate(4 326)">
<title>G</title>
<polygon fill="#ffffff" stroke="transparent" points="-4,4 -4,-326 567,-326 567,4 -4,4"/>
<!-- A0 -->
<g id="node1" class="node">
<title>A0</title>
<polygon fill="none" stroke="#000000" points="238.5,-100 238.5,-132 396.5,-132 396.5,-100 238.5,-100"/>
<text text-anchor="start" x="297.914" y="-113" font-family="Helvetica,sans-Serif" font-size="10.00" fill="#000000">+Profiles</text>
<polygon fill="none" stroke="#000000" points="238.5,-80 238.5,-100 396.5,-100 396.5,-80 238.5,-80"/>
<polygon fill="none" stroke="#000000" points="238.5,0 238.5,-80 396.5,-80 396.5,0 238.5,0"/>
<text text-anchor="start" x="272.638" y="-61" font-family="Helvetica,sans-Serif" font-size="10.00" fill="#000000">+DMButton__Click()</text>
<text text-anchor="start" x="248.183" y="-49" font-family="Helvetica,sans-Serif" font-size="10.00" fill="#000000">+StatsListView__ItemActivate()</text>
<text text-anchor="start" x="277.2225" y="-37" font-family="Helvetica,sans-Serif" font-size="10.00" fill="#000000">&#45;UsernameLabel()</text>
<text text-anchor="start" x="293.0555" y="-25" font-family="Helvetica,sans-Serif" font-size="10.00" fill="#000000">&#45;BioLabel()</text>
<text text-anchor="start" x="257.6305" y="-13" font-family="Helvetica,sans-Serif" font-size="10.00" fill="#000000">+PhotoPictureBox__Click()</text>
</g>
<!-- A1 -->
<g id="node2" class="node">
<title>A1</title>
<polygon fill="none" stroke="#000000" points=".5,-268 .5,-300 111.5,-300 111.5,-268 .5,-268"/>
<text text-anchor="start" x="31.1295" y="-281" font-family="Helvetica,sans-Serif" font-size="10.00" fill="#000000">+GameInfo</text>
<polygon fill="none" stroke="#000000" points=".5,-236 .5,-268 111.5,-268 111.5,-236 .5,-236"/>
<text text-anchor="start" x="26.9655" y="-249" font-family="Helvetica,sans-Serif" font-size="10.00" fill="#000000">+game:string</text>
<polygon fill="none" stroke="#000000" points=".5,-204 .5,-236 111.5,-236 111.5,-204 .5,-204"/>
<text text-anchor="start" x="10.0195" y="-217" font-family="Helvetica,sans-Serif" font-size="10.00" fill="#000000">+GameInfo():string:o</text>
</g>
<!-- A1&#45;&gt;A0 -->
<g id="edge1" class="edge">
<title>A1&#45;&gt;A0</title>
<path fill="none" stroke="#000000" d="M103.1407,-196.6202C108.4535,-191.4559 113.9545,-186.4849 119.5,-182 155.8981,-152.5632 200.5959,-125.7111 238.3067,-105.2724"/>
<polygon fill="#000000" stroke="#000000" points="96.026,-203.7548 99.9008,-193.4963 99.5566,-200.2143 103.0872,-196.6738 103.0872,-196.6738 103.0872,-196.6738 99.5566,-200.2143 106.2737,-199.8514 96.026,-203.7548 96.026,-203.7548"/>
</g>
<!-- A2 -->
<g id="node3" class="node">
<title>A2</title>
<polygon fill="none" stroke="#000000" points="129.5,-268 129.5,-300 242.5,-300 242.5,-268 129.5,-268"/>
<text text-anchor="start" x="160.575" y="-281" font-family="Helvetica,sans-Serif" font-size="10.00" fill="#000000">+PlayerInfo</text>
<polygon fill="none" stroke="#000000" points="129.5,-236 129.5,-268 242.5,-268 242.5,-236 129.5,-236"/>
<text text-anchor="start" x="147.242" y="-249" font-family="Helvetica,sans-Serif" font-size="10.00" fill="#000000">+username:string</text>
<polygon fill="none" stroke="#000000" points="129.5,-204 129.5,-236 242.5,-236 242.5,-204 129.5,-204"/>
<text text-anchor="start" x="139.465" y="-217" font-family="Helvetica,sans-Serif" font-size="10.00" fill="#000000">+PlayerInfo():string:o</text>
</g>
<!-- A2&#45;&gt;A0 -->
<g id="edge2" class="edge">
<title>A2&#45;&gt;A0</title>
<path fill="none" stroke="#000000" d="M225.7558,-195.2759C239.854,-175.4103 255.8106,-152.9259 270.4171,-132.3441"/>
<polygon fill="#000000" stroke="#000000" points="219.8369,-203.6162 221.9546,-192.8568 222.7306,-199.5387 225.6244,-195.4612 225.6244,-195.4612 225.6244,-195.4612 222.7306,-199.5387 229.2942,-198.0655 219.8369,-203.6162 219.8369,-203.6162"/>
</g>
<!-- A3 -->
<g id="node4" class="node">
<title>A3</title>
<polygon fill="none" stroke="#000000" points="260.5,-268 260.5,-300 375.5,-300 375.5,-268 260.5,-268"/>
<text text-anchor="start" x="303.412" y="-281" font-family="Helvetica,sans-Serif" font-size="10.00" fill="#000000">+Rank</text>
<polygon fill="none" stroke="#000000" points="260.5,-236 260.5,-268 375.5,-268 375.5,-236 260.5,-236"/>
<text text-anchor="start" x="283.1315" y="-249" font-family="Helvetica,sans-Serif" font-size="10.00" fill="#000000">+playerRank:int</text>
<polygon fill="none" stroke="#000000" points="260.5,-204 260.5,-236 375.5,-236 375.5,-204 260.5,-204"/>
<text text-anchor="start" x="270.0795" y="-217" font-family="Helvetica,sans-Serif" font-size="10.00" fill="#000000">+SortPlayerRank():int</text>
</g>
<!-- A3&#45;&gt;A0 -->
<g id="edge3" class="edge">
<title>A3&#45;&gt;A0</title>
<path fill="none" stroke="#000000" d="M317.5,-193.406C317.5,-174.0069 317.5,-152.2827 317.5,-132.3441"/>
<polygon fill="#000000" stroke="#000000" points="317.5,-203.6162 313.0001,-193.6162 317.5,-198.6162 317.5001,-193.6162 317.5001,-193.6162 317.5001,-193.6162 317.5,-198.6162 322.0001,-193.6163 317.5,-203.6162 317.5,-203.6162"/>
</g>
<!-- A4 -->
<g id="node5" class="node">
<title>A4</title>
<polygon fill="none" stroke="#000000" points="393.5,-290 393.5,-322 463.5,-322 463.5,-290 393.5,-290"/>
<text text-anchor="start" x="408.639" y="-303" font-family="Helvetica,sans-Serif" font-size="10.00" fill="#000000">+FilterBy</text>
<polygon fill="none" stroke="#000000" points="393.5,-246 393.5,-290 463.5,-290 463.5,-246 393.5,-246"/>
<text text-anchor="start" x="409.4695" y="-271" font-family="Helvetica,sans-Serif" font-size="10.00" fill="#000000">+time:int</text>
<text text-anchor="start" x="406.689" y="-259" font-family="Helvetica,sans-Serif" font-size="10.00" fill="#000000">+score:int</text>
<polygon fill="none" stroke="#000000" points="393.5,-214 393.5,-246 463.5,-246 463.5,-214 393.5,-214"/>
<text text-anchor="start" x="405.309" y="-227" font-family="Helvetica,sans-Serif" font-size="10.00" fill="#000000">+ByTime()</text>
<polygon fill="none" stroke="#000000" points="393.5,-182 393.5,-214 463.5,-214 463.5,-182 393.5,-182"/>
<text text-anchor="start" x="403.359" y="-195" font-family="Helvetica,sans-Serif" font-size="10.00" fill="#000000">+ByScore()</text>
</g>
<!-- A4&#45;&gt;A0 -->
<g id="edge4" class="edge">
<title>A4&#45;&gt;A0</title>
<path fill="none" stroke="#000000" d="M388.1487,-184.3842C378.0043,-167.3855 367.1287,-149.1616 357.0252,-132.2314"/>
<polygon fill="#000000" stroke="#000000" points="393.3789,-193.1484 384.3901,-186.8674 390.8166,-188.8549 388.2543,-184.5613 388.2543,-184.5613 388.2543,-184.5613 390.8166,-188.8549 392.1185,-182.2552 393.3789,-193.1484 393.3789,-193.1484"/>
</g>
<!-- A5 -->
<g id="node6" class="node">
<title>A5</title>
<polygon fill="none" stroke="#000000" points="482.5,-258 482.5,-290 563.5,-290 563.5,-258 482.5,-258"/>
<text text-anchor="start" x="499.798" y="-271" font-family="Helvetica,sans-Serif" font-size="10.00" fill="#000000">+Message</text>
<polygon fill="none" stroke="#000000" points="482.5,-214 482.5,-258 563.5,-258 563.5,-214 482.5,-214"/>
<text text-anchor="start" x="501.3295" y="-239" font-family="Helvetica,sans-Serif" font-size="10.00" fill="#000000">text:string</text>
<text text-anchor="start" x="492.1615" y="-227" font-family="Helvetica,sans-Serif" font-size="10.00" fill="#000000">sender:Profile</text>
</g>
<!-- A5&#45;&gt;A0 -->
<g id="edge5" class="edge">
<title>A5&#45;&gt;A0</title>
<path fill="none" stroke="#000000" d="M492.5601,-205.7559C486.3563,-197.48 479.5486,-189.207 472.5,-182 449.8214,-158.8118 422.2158,-136.6225 396.6202,-117.9738"/>
<polygon fill="#000000" stroke="#000000" points="498.5492,-213.9933 489.0289,-208.5513 495.6089,-209.9492 492.6686,-205.9051 492.6686,-205.9051 492.6686,-205.9051 495.6089,-209.9492 496.3083,-203.2588 498.5492,-213.9933 498.5492,-213.9933"/>
</g>
</g>
</svg>
