<?xml version="1.0" encoding="UTF-8" standalone="no"?>
<!DOCTYPE svg PUBLIC "-//W3C//DTD SVG 1.1//EN"
 "http://www.w3.org/Graphics/SVG/1.1/DTD/svg11.dtd">
<!-- Generated by graphviz version 2.40.1 (20161225.0304)
 -->
<!-- Title: G Pages: 1 -->
<svg width="218pt" height="362pt"
 viewBox="0.00 0.00 218.00 362.00" xmlns="http://www.w3.org/2000/svg" xmlns:xlink="http://www.w3.org/1999/xlink">
<g id="graph0" class="graph" transform="scale(1 1) rotate(0) translate(4 358)">
<title>G</title>
<polygon fill="#ffffff" stroke="transparent" points="-4,4 -4,-358 214,-358 214,4 -4,4"/>
<!-- A0 -->
<g id="node1" class="node">
<title>A0</title>
<polygon fill="none" stroke="#000000" points="15,-322 15,-354 94,-354 94,-322 15,-322"/>
<text text-anchor="start" x="27.415" y="-335" font-family="Helvetica,sans-Serif" font-size="10.00" fill="#000000">+A:HotDrink</text>
<polygon fill="none" stroke="#000000" points="15,-302 15,-322 94,-322 94,-302 15,-302"/>
<polygon fill="none" stroke="#000000" points="15,-222 15,-302 94,-302 94,-222 15,-222"/>
<text text-anchor="start" x="36.5885" y="-283" font-family="Helvetica,sans-Serif" font-size="10.00" fill="#000000">+Drink()</text>
<text text-anchor="start" x="30.4745" y="-271" font-family="Helvetica,sans-Serif" font-size="10.00" fill="#000000">+AddMilk()</text>
<text text-anchor="start" x="26.0205" y="-259" font-family="Helvetica,sans-Serif" font-size="10.00" fill="#000000">+AddSugar()</text>
<text text-anchor="start" x="29.085" y="-247" font-family="Helvetica,sans-Serif" font-size="10.00" fill="#000000">+Milk:string</text>
<text text-anchor="start" x="24.631" y="-235" font-family="Helvetica,sans-Serif" font-size="10.00" fill="#000000">+Sugar:string</text>
<polygon fill="none" stroke="#000000" points="15,-202 15,-222 94,-222 94,-202 15,-202"/>
</g>
<!-- A1 -->
<g id="node2" class="node">
<title>A1</title>
<polygon fill="none" stroke="#000000" points="0,-120 0,-152 98,-152 98,-120 0,-120"/>
<text text-anchor="start" x="16.906" y="-133" font-family="Helvetica,sans-Serif" font-size="10.00" fill="#000000">+CupOfCoffee</text>
<polygon fill="none" stroke="#000000" points="0,-100 0,-120 98,-120 98,-100 0,-100"/>
<polygon fill="none" stroke="#000000" points="0,-20 0,-100 98,-100 98,-20 0,-20"/>
<text text-anchor="start" x="9.682" y="-81" font-family="Helvetica,sans-Serif" font-size="10.00" fill="#000000">+BeanType:string</text>
<text text-anchor="start" x="34.564" y="-69" font-family="Helvetica,sans-Serif" font-size="10.00" fill="#000000">Refill()</text>
<text text-anchor="start" x="32.8925" y="-57" font-family="Helvetica,sans-Serif" font-size="10.00" fill="#000000">Wash()</text>
<text text-anchor="start" x="23.4455" y="-45" font-family="Helvetica,sans-Serif" font-size="10.00" fill="#000000">Color:string</text>
<text text-anchor="start" x="25.385" y="-33" font-family="Helvetica,sans-Serif" font-size="10.00" fill="#000000">Volume:int</text>
<polygon fill="none" stroke="#000000" points="0,0 0,-20 98,-20 98,0 0,0"/>
</g>
<!-- A0&#45;&gt;A1 -->
<g id="edge4" class="edge">
<title>A0&#45;&gt;A1</title>
<path fill="none" stroke="#000000" stroke-dasharray="5,2" d="M51.8681,-191.8711C51.5401,-178.6204 51.2035,-165.0207 50.8815,-152.0111"/>
<polygon fill="#000000" stroke="#000000" points="52.1168,-201.9203 47.3707,-192.0348 51.9931,-196.9218 51.8693,-191.9234 51.8693,-191.9234 51.8693,-191.9234 51.9931,-196.9218 56.3679,-191.812 52.1168,-201.9203 52.1168,-201.9203"/>
</g>
<!-- A3 -->
<g id="node4" class="node">
<title>A3</title>
<polygon fill="none" stroke="#000000" points="116,-120 116,-152 210,-152 210,-120 116,-120"/>
<text text-anchor="start" x="137.0195" y="-133" font-family="Helvetica,sans-Serif" font-size="10.00" fill="#000000">+CupOfTea</text>
<polygon fill="none" stroke="#000000" points="116,-100 116,-120 210,-120 210,-100 116,-100"/>
<polygon fill="none" stroke="#000000" points="116,-20 116,-100 210,-100 210,-20 116,-20"/>
<text text-anchor="start" x="125.627" y="-81" font-family="Helvetica,sans-Serif" font-size="10.00" fill="#000000">+LeafType:string</text>
<text text-anchor="start" x="148.564" y="-69" font-family="Helvetica,sans-Serif" font-size="10.00" fill="#000000">Refill()</text>
<text text-anchor="start" x="146.8925" y="-57" font-family="Helvetica,sans-Serif" font-size="10.00" fill="#000000">Wash()</text>
<text text-anchor="start" x="137.4455" y="-45" font-family="Helvetica,sans-Serif" font-size="10.00" fill="#000000">Color:string</text>
<text text-anchor="start" x="139.385" y="-33" font-family="Helvetica,sans-Serif" font-size="10.00" fill="#000000">Volume:int</text>
<polygon fill="none" stroke="#000000" points="116,0 116,-20 210,-20 210,0 116,0"/>
</g>
<!-- A0&#45;&gt;A3 -->
<g id="edge3" class="edge">
<title>A0&#45;&gt;A3</title>
<path fill="none" stroke="#000000" stroke-dasharray="5,2" d="M98.3301,-195.8469C106.1484,-181.358 114.2561,-166.3327 121.9786,-152.0213"/>
<polygon fill="#000000" stroke="#000000" points="93.5056,-204.7878 94.2942,-193.8503 95.88,-200.3875 98.2545,-195.9872 98.2545,-195.9872 98.2545,-195.9872 95.88,-200.3875 102.2147,-198.1242 93.5056,-204.7878 93.5056,-204.7878"/>
</g>
<!-- A2 -->
<g id="node3" class="node">
<title>A2</title>
<polygon fill="none" stroke="#000000" points="122,-296 122,-328 193,-328 193,-296 122,-296"/>
<text text-anchor="start" x="144.0225" y="-309" font-family="Helvetica,sans-Serif" font-size="10.00" fill="#000000">+ICup</text>
<polygon fill="none" stroke="#000000" points="122,-228 122,-296 193,-296 193,-228 122,-228"/>
<text text-anchor="start" x="141.6745" y="-277" font-family="Helvetica,sans-Serif" font-size="10.00" fill="#000000"> Refill()</text>
<text text-anchor="start" x="141.3925" y="-265" font-family="Helvetica,sans-Serif" font-size="10.00" fill="#000000">Wash()</text>
<text text-anchor="start" x="131.9455" y="-253" font-family="Helvetica,sans-Serif" font-size="10.00" fill="#000000">Color:string</text>
<text text-anchor="start" x="133.885" y="-241" font-family="Helvetica,sans-Serif" font-size="10.00" fill="#000000">Volume:int</text>
</g>
<!-- A2&#45;&gt;A1 -->
<g id="edge2" class="edge">
<title>A2&#45;&gt;A1</title>
<path fill="none" stroke="#000000" d="M125.3371,-218.7787C114.2184,-197.9826 101.566,-174.3178 89.8034,-152.3175"/>
<polygon fill="none" stroke="#000000" points="122.3631,-220.6394 130.1646,-227.8079 128.5362,-217.3389 122.3631,-220.6394"/>
</g>
<!-- A2&#45;&gt;A3 -->
<g id="edge1" class="edge">
<title>A2&#45;&gt;A3</title>
<path fill="none" stroke="#000000" d="M158.7924,-217.6569C159.402,-197.1342 160.0914,-173.9232 160.7331,-152.3175"/>
<polygon fill="none" stroke="#000000" points="155.2894,-217.7083 158.4909,-227.8079 162.2863,-217.9162 155.2894,-217.7083"/>
</g>
</g>
</svg>
